<svg width="167" height="49" viewBox="0 0 167 49" fill="none" xmlns="http://www.w3.org/2000/svg">
<g id="Amo-zil-logo 1">
<g id="layer4">
<path id="path900" d="M77.1151 41.7804C61.5097 41.4226 47.5096 40.2983 32.809 38.2223C29.9583 37.8198 26.0476 37.2249 25.5119 37.1123C25.2224 37.0515 25.1571 36.8853 23.8639 32.9143C23.1232 30.6403 22.4844 28.7473 22.4441 28.7076C22.388 28.6523 6.31917 27.5995 5.68678 27.6097C5.57924 27.6115 5.54797 26.9607 5.54797 24.7205V21.829L5.79782 21.8306C6.66518 21.8361 22.3845 20.907 22.4424 20.8468C22.4817 20.8059 23.1181 18.9007 23.8566 16.6129C24.5951 14.3252 25.2174 12.4353 25.2393 12.4133C25.2948 12.3578 28.5502 11.792 31.4765 11.3292C55.3766 7.54977 79.0165 6.37155 102.988 7.76508C112.538 8.32023 122.58 9.3564 132.137 10.7727C136.728 11.4531 141.912 12.3327 142.013 12.4483C142.058 12.5003 142.665 14.4593 143.362 16.8015C144.442 20.4324 144.662 21.0665 144.851 21.1027C145.039 21.1387 160.913 21.8423 161.313 21.8324C161.421 21.8297 161.452 22.4877 161.452 24.7608V27.6926L160.536 27.7614C160.032 27.7993 156.272 28.0116 152.18 28.2332C148.088 28.4549 144.708 28.6685 144.668 28.708C144.629 28.7474 144.034 30.6063 143.347 32.8389C142.66 35.0715 142.058 36.9423 142.011 36.9962C141.91 37.1094 140.052 37.4143 135.19 38.1149C122.15 39.9945 109.788 41.0954 95.7702 41.6256C92.7392 41.7402 79.9811 41.8461 77.1151 41.7804ZM94.3267 38.5035C106.055 38.1629 117.418 37.2648 129.46 35.7265C133.943 35.1537 138.936 34.4157 139.036 34.3108C139.171 34.1693 140.714 28.8255 140.641 28.7526C140.603 28.7144 133.89 29.1198 125.722 29.6535C117.555 30.1872 110.76 30.6218 110.624 30.6193L110.376 30.6147L110.346 27.7588L110.317 24.9029L108.055 27.9256C106.811 29.5881 105.762 30.9515 105.723 30.9554C105.685 30.9592 100.731 31.1721 94.7153 31.4284L83.7776 31.8944L83.7221 29.2378L83.6665 26.5813L81.392 29.1611L79.1176 31.741L78.0608 31.674C76.9435 31.6031 70.3696 31.282 70.037 31.282C69.8539 31.282 69.8417 31.0048 69.8417 26.8363V22.3906L69.5363 22.4397C69.3684 22.4667 67.8068 22.569 66.0662 22.667C64.3256 22.765 62.8391 22.8653 62.7627 22.8897C62.6551 22.9242 62.6239 23.8334 62.6239 26.9413C62.6239 30.3292 62.5996 30.9483 62.4662 30.9483C62.3794 30.9483 61.5674 30.8982 60.6617 30.8368C53.6238 30.3603 26.8398 28.721 26.5158 28.747L26.1079 28.7797L26.9994 31.56C27.4898 33.0892 27.9012 34.3516 27.9136 34.3655C27.9931 34.4535 35.8826 35.555 40.0268 36.0566C58.1422 38.2492 75.754 39.0428 94.3267 38.5035ZM97.4081 28.5023L98.8239 28.5016V27.3339V26.1662H101.319H103.815L106.788 22.2139L109.762 18.2616L110.532 16.2641L111.302 14.2666L111.864 14.268C112.174 14.2688 114.85 14.3935 117.812 14.5451C120.774 14.6968 123.235 14.8213 123.281 14.8218C123.327 14.8222 123.364 17.5 123.364 20.7724V26.7223L123.892 26.7211C124.182 26.7206 127.143 26.5967 130.471 26.4459C133.8 26.295 137.273 26.1433 138.189 26.1085C139.105 26.0738 140.067 26.0195 140.326 25.9878L140.798 25.9301V25.165C140.798 24.7442 140.75 24.3703 140.692 24.334C140.633 24.2978 137.997 24.1438 134.834 23.9918C131.671 23.8397 128.771 23.6873 128.389 23.653L127.695 23.5906V21.9869V20.3832L128.611 20.3885C129.115 20.3913 132.026 20.5101 135.079 20.6524C138.133 20.7946 140.653 20.8913 140.68 20.8673C140.731 20.822 139.162 15.1491 139.075 15.0619C138.926 14.9125 130.515 13.6442 125.351 12.9926C115.689 11.7732 107.438 11.0797 96.7696 10.5902C92.6374 10.4006 78.963 10.3295 74.339 10.4736C62.0448 10.8566 51.4441 11.7156 39.7492 13.2765C34.4013 13.9903 27.9771 14.9931 27.8587 15.1326C27.767 15.2405 26.0853 21.1931 26.133 21.2409C26.1538 21.2618 28.6139 21.1798 31.5998 21.0588C34.5856 20.9377 39.9143 20.7259 43.4413 20.5882L49.854 20.3378V19.3012V18.2646L48.1051 18.2952L46.3562 18.3258L46.3238 19.1217L46.2914 19.9176L45.6575 19.9799C45.3089 20.0142 44.3741 20.0702 43.5801 20.1045C42.7862 20.1388 41.7743 20.1964 41.3315 20.2325L40.5264 20.2982V17.8962V15.4942L40.7763 15.4446C40.9137 15.4174 42.4253 15.3388 44.1353 15.2701C45.8454 15.2013 48.7936 15.0748 50.6869 14.989C52.5801 14.9031 55.4284 14.7801 57.0163 14.7157C58.6042 14.6512 60.1158 14.5748 60.3753 14.5459L60.8473 14.4933V16.4622V18.4311L60.1565 19.1291L59.4657 19.8272H60.1113C60.764 19.8272 76.7648 19.1038 78.2532 19.007L79.0583 18.9546V21.4483C79.0583 22.8198 79.0958 23.9412 79.1416 23.9403C79.1874 23.9395 80.2243 22.6656 81.4457 21.1096C83.4536 18.5517 83.6985 18.2799 83.9997 18.2749C84.5309 18.266 104.538 19.3961 104.579 19.4374C104.6 19.4579 104.075 20.1564 103.413 20.9896L102.211 22.5047L98.2132 22.4823L94.2156 22.46L94.1861 25.5531L94.1566 28.6461L95.0745 28.5746C95.5793 28.5352 96.6294 28.5027 97.4081 28.5023ZM49.743 25.248V23.3289L38.2223 23.8511C31.8859 24.1383 26.5642 24.3763 26.3963 24.38C26.0956 24.3867 26.0909 24.3979 26.0909 25.0987V25.8106L27.3956 25.8926C33.019 26.246 48.3927 27.1441 48.9935 27.1543L49.743 27.1671V25.248Z" fill="black"/>
</g>
</g>
</svg>
