<svg width="40" height="40" viewBox="0 0 40 40" fill="none" xmlns="http://www.w3.org/2000/svg">
<path fill-rule="evenodd" clip-rule="evenodd" d="M17.4815 18.9033C19.4573 17.9154 22.1168 17.3333 25 17.3333C27.8832 17.3333 30.5427 17.9154 32.5185 18.9033C34.4344 19.8613 36 21.3697 36 23.3333C36 25.297 34.4344 26.8054 32.5185 27.7634C30.5427 28.7513 27.8832 29.3333 25 29.3333C22.1168 29.3333 19.4573 28.7513 17.4815 27.7634C15.5656 26.8054 14 25.297 14 23.3333C14 21.3697 15.5656 19.8613 17.4815 18.9033ZM18.376 20.6921C16.6728 21.5437 16 22.5353 16 23.3333C16 24.1314 16.6728 25.1229 18.376 25.9745C20.0194 26.7963 22.3599 27.3333 25 27.3333C27.6401 27.3333 29.9806 26.7963 31.624 25.9745C33.3272 25.1229 34 24.1314 34 23.3333C34 22.5353 33.3272 21.5437 31.624 20.6921C29.9806 19.8704 27.6401 19.3333 25 19.3333C22.3599 19.3333 20.0194 19.8704 18.376 20.6921Z" fill="#005BE2"/>
<path fill-rule="evenodd" clip-rule="evenodd" d="M15 22.3333C15.5523 22.3333 16 22.7811 16 23.3333V30C16 30.7971 16.6726 31.7887 18.376 32.6406C20.0195 33.4626 22.36 34 25 34C27.64 34 29.9805 33.4626 31.624 32.6406C33.3274 31.7887 34 30.7971 34 30V23.3333C34 22.7811 34.4477 22.3333 35 22.3333C35.5523 22.3333 36 22.7811 36 23.3333V30C36 31.9629 34.4343 33.4713 32.5185 34.4294C30.5429 35.4175 27.8833 36 25 36C22.1167 36 19.4571 35.4175 17.4815 34.4294C15.5657 33.4713 14 31.9629 14 30V23.3333C14 22.7811 14.4477 22.3333 15 22.3333Z" fill="#005BE2"/>
<path fill-rule="evenodd" clip-rule="evenodd" d="M9.72255 4.70926C12.9971 3.76358 17.0029 3.76358 20.2775 4.70926C21.9182 5.18309 23.3112 5.87529 24.3146 6.744C25.3174 7.61231 26 8.72533 26 10C26 11.2747 25.3174 12.3877 24.3146 13.256C23.3112 14.1247 21.9182 14.8169 20.2775 15.2907C17.0029 16.2364 12.9971 16.2364 9.72255 15.2907C8.08181 14.8169 6.68876 14.1247 5.68543 13.256C4.68257 12.3877 4 11.2747 4 10C4 8.72533 4.68257 7.61231 5.68543 6.744C6.68876 5.87529 8.08181 5.18309 9.72255 4.70926ZM19.7225 6.63074C16.8105 5.78975 13.1895 5.78975 10.2775 6.63074C8.82486 7.05024 7.71791 7.62971 6.99457 8.256C6.27076 8.88269 6 9.488 6 10C6 10.512 6.27076 11.1173 6.99457 11.744C7.71791 12.3703 8.82486 12.9498 10.2775 13.3693C13.1895 14.2102 16.8105 14.2102 19.7225 13.3693C21.1751 12.9498 22.2821 12.3703 23.0054 11.744C23.7292 11.1173 24 10.512 24 10C24 9.488 23.7292 8.88269 23.0054 8.256C22.2821 7.62971 21.1751 7.05024 19.7225 6.63074Z" fill="#005BE2"/>
<path fill-rule="evenodd" clip-rule="evenodd" d="M5 9C5.55228 9 6 9.44772 6 10V26.6667C6 27.066 6.15497 27.4193 6.57791 27.8102C7.03189 28.2298 7.7426 28.6397 8.74209 29.0874C9.24613 29.3131 9.47173 29.9047 9.24598 30.4088C9.02023 30.9128 8.42862 31.1384 7.92458 30.9126C6.8774 30.4436 5.92144 29.9269 5.22042 29.279C4.48837 28.6024 4 27.7473 4 26.6667V10C4 9.44772 4.44772 9 5 9Z" fill="#005BE2"/>
<path fill-rule="evenodd" clip-rule="evenodd" d="M5 17.3333C5.55228 17.3333 6 17.7811 6 18.3333C6 18.7327 6.15497 19.086 6.57791 19.4769C7.03189 19.8965 7.7426 20.3064 8.74209 20.754C9.24613 20.9798 9.47173 21.5714 9.24598 22.0754C9.02023 22.5795 8.42862 22.8051 7.92458 22.5793C6.8774 22.1103 5.92144 21.5935 5.22042 20.9456C4.48837 20.269 4 19.414 4 18.3333C4 17.7811 4.44772 17.3333 5 17.3333Z" fill="#005BE2"/>
</svg>
