<svg width="40" height="40" viewBox="0 0 40 40" fill="none" xmlns="http://www.w3.org/2000/svg">
<path fill-rule="evenodd" clip-rule="evenodd" d="M25.7071 14.2929C26.0976 14.6834 26.0976 15.3166 25.7071 15.7071L15.7071 25.7071C15.3166 26.0976 14.6834 26.0976 14.2929 25.7071C13.9024 25.3166 13.9024 24.6834 14.2929 24.2929L24.2929 14.2929C24.6834 13.9024 25.3166 13.9024 25.7071 14.2929Z" fill="#005BE2"/>
<path d="M15.8333 16.6667C16.2936 16.6667 16.6667 16.2936 16.6667 15.8333C16.6667 15.3731 16.2936 15 15.8333 15C15.3731 15 15 15.3731 15 15.8333C15 16.2936 15.3731 16.6667 15.8333 16.6667Z" fill="#005BE2"/>
<path fill-rule="evenodd" clip-rule="evenodd" d="M15.8333 16C15.9254 16 16 15.9254 16 15.8333C16 15.7413 15.9254 15.6667 15.8333 15.6667C15.7413 15.6667 15.6667 15.7413 15.6667 15.8333C15.6667 15.9254 15.7413 16 15.8333 16ZM14 15.8333C14 14.8208 14.8208 14 15.8333 14C16.8459 14 17.6667 14.8208 17.6667 15.8333C17.6667 16.8459 16.8459 17.6667 15.8333 17.6667C14.8208 17.6667 14 16.8459 14 15.8333Z" fill="#005BE2"/>
<path d="M24.1667 25C24.6269 25 25 24.6269 25 24.1667C25 23.7064 24.6269 23.3333 24.1667 23.3333C23.7064 23.3333 23.3333 23.7064 23.3333 24.1667C23.3333 24.6269 23.7064 25 24.1667 25Z" fill="#005BE2"/>
<path fill-rule="evenodd" clip-rule="evenodd" d="M24.1667 24.3333C24.2587 24.3333 24.3333 24.2587 24.3333 24.1667C24.3333 24.0746 24.2587 24 24.1667 24C24.0746 24 24 24.0746 24 24.1667C24 24.2587 24.0746 24.3333 24.1667 24.3333ZM22.3333 24.1667C22.3333 23.1542 23.1542 22.3333 24.1667 22.3333C25.1792 22.3333 26 23.1542 26 24.1667C26 25.1792 25.1792 26 24.1667 26C23.1542 26 22.3333 25.1792 22.3333 24.1667Z" fill="#005BE2"/>
<path fill-rule="evenodd" clip-rule="evenodd" d="M13.8771 5.21793C15.8183 4.41385 17.8988 4 20 4C22.1011 4 24.1817 4.41385 26.1229 5.21793C28.0641 6.022 29.828 7.20055 31.3137 8.68629C32.7994 10.172 33.978 11.9359 34.7821 13.8771C35.5861 15.8183 36 17.8989 36 20C36 22.1011 35.5861 24.1817 34.7821 26.1229C33.978 28.0641 32.7994 29.828 31.3137 31.3137C29.828 32.7994 28.0641 33.978 26.1229 34.7821C24.1817 35.5861 22.1011 36 20 36C17.8989 36 15.8183 35.5861 13.8771 34.7821C11.9359 33.978 10.172 32.7994 8.68629 31.3137C7.20055 29.828 6.022 28.0641 5.21793 26.1229C4.41385 24.1817 4 22.1011 4 20C4 17.8988 4.41385 15.8183 5.21793 13.8771C6.022 11.9359 7.20055 10.172 8.68629 8.68629C10.172 7.20055 11.9359 6.022 13.8771 5.21793ZM20 6C18.1615 6 16.341 6.36212 14.6424 7.06569C12.9439 7.76925 11.4005 8.80048 10.1005 10.1005C8.80048 11.4005 7.76925 12.9439 7.06569 14.6424C6.36212 16.341 6 18.1615 6 20C6 21.8385 6.36212 23.659 7.06569 25.3576C7.76925 27.0561 8.80048 28.5995 10.1005 29.8995C11.4005 31.1995 12.9439 32.2307 14.6424 32.9343C16.341 33.6379 18.1615 34 20 34C21.8385 34 23.659 33.6379 25.3576 32.9343C27.0561 32.2307 28.5995 31.1995 29.8995 29.8995C31.1995 28.5995 32.2307 27.0561 32.9343 25.3576C33.6379 23.659 34 21.8385 34 20C34 18.1615 33.6379 16.341 32.9343 14.6424C32.2307 12.9439 31.1995 11.4005 29.8995 10.1005C28.5995 8.80048 27.0561 7.76925 25.3576 7.06569C23.659 6.36212 21.8385 6 20 6Z" fill="#005BE2"/>
</svg>
