<svg width="60" height="60" viewBox="0 0 60 60" fill="none" xmlns="http://www.w3.org/2000/svg">
<g id="help-hexagon 1">
<path id="Vector (Stroke)" fill-rule="evenodd" clip-rule="evenodd" d="M28.0118 7.02894L11.1569 16.9671C11.1439 16.9748 11.1308 16.9823 11.1175 16.9895C9.8046 17.7112 9 19.0728 9 20.5425V38.7534C9.00171 39.4808 9.1987 40.1944 9.57041 40.8197C9.94236 41.4454 10.4756 41.9597 11.1143 42.3087C11.1424 42.3241 11.1699 42.3403 11.1969 42.3574L28.0296 53.0056C28.6355 53.3302 29.3123 53.5002 30 53.5002C30.6877 53.5002 31.3645 53.3302 31.9704 53.0056L48.8031 42.3574C48.8291 42.3409 48.8555 42.3253 48.8825 42.3105C50.1947 41.5892 51 40.2255 51 38.755V20.5357C51.0091 19.0656 50.224 17.7055 48.9461 16.979C48.8339 16.9152 48.7326 16.8386 48.6431 16.7519L32.1532 7.02894C31.5181 6.6826 30.8061 6.50104 30.0825 6.50104C29.3589 6.50104 28.6469 6.6826 28.0118 7.02894ZM50.8403 14.6239C50.7501 14.532 50.6468 14.4507 50.5319 14.3829L33.6569 4.4329C33.6444 4.42557 33.6319 4.41841 33.6192 4.41144C32.5361 3.81424 31.3194 3.50104 30.0825 3.50104C28.8456 3.50104 27.6289 3.81424 26.5458 4.41144C26.5331 4.41841 26.5206 4.42557 26.5081 4.4329L9.65149 14.3721C7.40168 15.6185 6 17.9752 6 20.5425V38.755L6 38.758C6.00255 40.0234 6.34503 41.2649 6.99165 42.3527C7.62961 43.4259 8.54049 44.3105 9.63119 44.9168L26.4681 55.5677C26.4943 55.5842 26.5209 55.6 26.5481 55.6149C27.6059 56.1957 28.7932 56.5002 30 56.5002C31.2068 56.5002 32.3941 56.1957 33.4519 55.6149C33.4791 55.6 33.5057 55.5842 33.5319 55.5677L50.3702 44.9159C52.608 43.666 54 41.3133 54 38.755V20.5495C54.0132 18.158 52.8169 15.9337 50.8403 14.6239Z" fill="#005BE2"/>
<path id="Vector (Stroke)_2" fill-rule="evenodd" clip-rule="evenodd" d="M30 38.5C30.8284 38.5 31.5 39.1716 31.5 40V40.025C31.5 40.8534 30.8284 41.525 30 41.525C29.1716 41.525 28.5 40.8534 28.5 40.025V40C28.5 39.1716 29.1716 38.5 30 38.5Z" fill="#005BE2"/>
<path id="Vector (Stroke)_3" fill-rule="evenodd" clip-rule="evenodd" d="M28.7627 21.1259C30.19 20.8404 31.6718 21.046 32.9674 21.7092C34.2691 22.3729 35.3093 23.4558 35.92 24.7832C36.531 26.1111 36.6765 27.6061 36.3331 29.0269C35.9898 30.4477 35.1775 31.7113 34.0276 32.6136C32.8777 33.516 31.4572 34.0044 29.9955 34C29.1671 33.9975 28.4975 33.3239 28.5 32.4955C28.5025 31.6671 29.1761 30.9975 30.0045 31C30.7916 31.0024 31.5565 30.7394 32.1757 30.2535C32.7948 29.7676 33.2322 29.0872 33.4171 28.3222C33.602 27.5572 33.5236 26.7521 33.1946 26.0371C32.8657 25.3221 32.3053 24.7388 31.604 24.3815L31.6011 24.38L31.6011 24.38C30.9079 24.0249 30.115 23.9148 29.3513 24.0676C28.5876 24.2204 27.8981 24.6272 27.3949 25.2216C26.8597 25.8539 25.9132 25.9326 25.2809 25.3974C24.6486 24.8622 24.5699 23.9157 25.1051 23.2834C26.0458 22.172 27.335 21.4116 28.7627 21.1259Z" fill="#005BE2"/>
</g>
</svg>
