<svg width="202" height="26" viewBox="0 0 202 26" fill="none" xmlns="http://www.w3.org/2000/svg">
<g id="hyundai 1" clip-path="url(#clip0_299_3125)">
<g id="g832">
<path id="path828" fill-rule="evenodd" clip-rule="evenodd" d="M188.792 6.59012H180.523C179.135 6.67227 178.747 7.01666 178.747 8.70271V13.3506H188.792V6.59012ZM193.194 2.86819V23.1356H188.792V17.3098H178.747V23.1356H174.345V7.2468C174.345 4.43944 175.481 2.86819 178.747 2.86819H193.194ZM169.942 7.24299V18.2113C169.942 21.7031 167.983 23.1318 165.539 23.1318H151.652V2.86438H165.539C169.29 2.86438 169.942 5.25064 169.942 7.24299ZM165.487 8.46278C165.487 7.35235 164.811 6.58631 163.627 6.58631H156.056V19.2499L163.627 19.2494C165.351 19.1618 165.487 18.127 165.487 17.306V8.46278ZM61.9066 2.86438H66.3093V10.8528H76.1595V2.86438H80.5621V23.1312H76.1595V14.8604H66.3093V23.1312H61.9066V2.86438ZM88.1077 2.86438L93.627 11.1499L99.0801 2.86438H104.426L95.8262 15.8218V23.1318H91.423V15.8207L82.7634 2.86438H88.1077ZM129.14 2.86438H143.327C145.349 2.86438 147.307 3.14838 147.25 7.24299V23.1318H142.847V8.6989C142.847 6.95355 142.638 6.58631 141.269 6.58631H133.543V23.1318H129.14V2.86438ZM202 2.86819V23.1356H197.596V2.86819H202ZM106.628 23.1318H120.814C123.635 23.1318 124.795 22.3151 124.737 18.2456V2.86438H120.335V17.3326C120.335 19.0671 120.126 19.2776 118.757 19.2776H111.031L111.03 2.86438H106.628V23.1318Z" fill="#003984"/>
<path id="path830" fill-rule="evenodd" clip-rule="evenodd" d="M30.8298 16.0044C31.2179 18.012 30.1665 19.6796 29.2928 21.2982C28.3224 22.8041 26.7207 24.0984 24.7956 23.9048C20.4756 23.84 16.2534 23.1763 12.3379 21.994C12.1602 21.9456 11.9824 21.8319 11.8851 21.6703C11.8041 21.4434 11.9177 21.2329 12.0791 21.0876C15.6549 18.1894 19.9096 16.8461 24.116 15.437C25.685 14.9838 27.3519 14.4979 29.115 14.7248C29.8425 14.8222 30.5704 15.3244 30.8298 16.0044ZM45.5681 7.42403C47.5742 9.07526 49.3863 11.326 48.7714 14.0458C47.7683 18.061 43.4005 20.1981 39.9221 21.5577C38.029 22.1893 36.1202 22.8373 34.0494 23.0315C33.92 23.0152 33.7096 23.0473 33.677 22.8531L33.7254 22.6268C36.6699 19.3074 38.9022 15.5844 40.8605 11.8119C41.7662 10.1117 42.6078 8.36363 43.3842 6.64711C43.4973 6.51762 43.6109 6.45288 43.7403 6.40446C44.4677 6.46866 44.9858 7.03557 45.5681 7.42403ZM17.3364 3.14988L17.2717 3.39253C13.017 8.23305 10.2182 13.851 7.56506 19.4364C7.04749 19.9222 6.54568 19.2743 6.07649 19.0637C3.71425 17.5099 1.57871 15.0001 2.1936 12.0214C3.18036 8.13621 7.17634 6.06388 10.5096 4.65584C12.4831 3.91102 14.5382 3.31201 16.7058 2.97197C16.9325 2.97143 17.2234 2.93933 17.3364 3.14988ZM38.4498 3.9268C38.6923 4.05629 38.9837 4.10471 39.1294 4.34736C39.2588 4.62265 39 4.80056 38.8543 4.97902C35.5053 7.6014 31.6714 9.05894 27.7559 10.338C25.7655 10.8239 23.7593 11.6982 21.5433 11.2123C21.0252 11.0828 20.5566 10.7428 20.2652 10.2406C19.715 8.7189 20.4593 7.13241 21.1062 5.8049C21.9636 4.13735 23.4848 2.17818 25.5877 2.14608C30.1176 2.11344 34.3886 2.79352 38.4498 3.9268ZM44.0475 4.05629C47.4775 5.93439 51.3604 9.23685 50.9559 13.6405C50.4867 17.7204 46.6848 20.5697 43.2874 22.2862C33.3698 27.0299 19.4404 27.1751 9.19933 23.031C5.7367 21.5903 1.85381 19.1132 0.39732 15.3891C-0.718834 12.3293 0.639796 9.14 2.92158 7.01925C7.69391 2.68035 13.777 1.19125 20.0385 0.332725C26.8338 -0.493161 33.9841 0.235338 40.0673 2.32399C41.4264 2.82616 42.7693 3.37675 44.0475 4.05629Z" fill="#003984"/>
</g>
</g>
<defs>
<clipPath id="clip0_299_3125">
<rect width="202" height="26" fill="white"/>
</clipPath>
</defs>
</svg>
