<svg width="147" height="32" viewBox="0 0 147 32" fill="none" xmlns="http://www.w3.org/2000/svg">
<g id="IVECO_2 1" clip-path="url(#clip0_299_3110)">
<g id="Group">
<path id="Vector" fill-rule="evenodd" clip-rule="evenodd" d="M129.942 7.63801C132.341 7.76956 134.072 9.48151 134.34 11.7205C134.473 12.9054 134.473 14.7489 134.473 15.9338C134.473 17.3826 134.473 18.5675 134.34 19.7524C133.939 22.5185 131.941 24.0989 129.942 24.0989H128.342H126.476C124.61 24.0989 122.477 22.5185 122.078 19.7524C121.945 18.5675 121.945 17.3818 121.945 16.0653C121.945 14.7489 121.945 12.9054 122.078 11.7197C122.344 9.48065 124.21 7.7687 126.609 7.63715C127.141 7.50559 127.542 7.50559 128.208 7.50559L129.942 7.63801ZM128.608 0C131.14 0 133.539 0.131556 135.539 0.394669C141.136 1.05331 145.668 5.39897 146.6 10.7988C146.733 11.7206 147 13.8272 147 15.9347C147 18.1737 146.733 20.2803 146.6 21.0705C145.668 26.6019 141.136 30.816 135.539 31.6062C133.539 31.7377 131.14 32.0009 128.608 32.0009H127.808C125.143 32.0009 122.878 31.7377 120.745 31.6062C115.148 30.816 110.75 26.6019 109.816 21.0705C109.683 20.2803 109.417 18.1737 109.417 15.9347C109.417 13.828 109.683 11.7214 109.816 10.7988C110.749 5.39897 115.148 1.05417 120.745 0.394669C122.878 0.131556 125.143 0 127.675 0H128.608Z" fill="#003A80"/>
<path id="Vector_2" fill-rule="evenodd" clip-rule="evenodd" d="M80.4967 15.9338C80.4967 14.2218 80.6299 12.5107 81.0293 10.7979C81.9621 5.39811 86.3601 1.05331 91.958 0.393809C93.9577 0.131556 96.3568 0 98.8882 0C101.688 0 104.22 0.131556 106.352 0.394669C107.151 0.526225 107.684 1.18487 107.684 1.97506V6.71539C107.684 7.63715 107.017 8.29579 106.218 8.29579C106.218 8.29579 103.686 8.16337 102.353 8.16337C100.754 8.16337 99.4216 8.16337 97.9545 8.29579C95.5562 8.42734 93.8237 10.1393 93.5565 12.3783C93.4234 13.5632 93.2894 14.7489 93.2894 15.9338V16.0653C93.2894 17.2511 93.4225 18.4359 93.5565 19.6208C93.8237 21.8598 95.4231 23.5718 97.9545 23.8349C99.2876 23.9665 100.887 24.0989 102.353 24.0989C103.686 24.0989 106.218 23.9673 106.218 23.9673C107.017 23.9673 107.684 24.626 107.684 25.5477V30.2889C107.684 31.0791 107.151 31.7377 106.352 31.8693C104.22 31.8693 101.688 32 98.8882 32C96.3568 32 93.9577 31.7369 91.958 31.6053C86.3601 30.8151 81.963 26.601 81.0293 21.0696C80.6299 19.4901 80.4967 17.7782 80.4967 16.0662C80.4967 10.6664 80.4967 21.3345 80.4967 15.9338Z" fill="#003A80"/>
<path id="Vector_3" fill-rule="evenodd" clip-rule="evenodd" d="M76.8994 23.7034C77.8314 23.7034 78.4979 24.4936 78.4979 25.2838V30.025C78.4979 30.9467 77.8314 31.6053 76.8994 31.6053H57.8405C54.3754 31.6053 51.5769 28.8401 51.5769 25.4162V6.71627C51.5769 3.29322 54.3754 0.5271 57.8405 0.5271H76.8985C77.8305 0.5271 78.4971 1.18574 78.4971 1.97594V6.58471C78.4971 7.50732 77.8305 8.1651 76.8985 8.1651H65.171C64.2382 8.1651 63.5716 8.69219 63.5716 9.61394V12.5116L73.5674 12.3801C74.3663 12.3801 75.166 13.1703 75.166 13.9605V17.9114C75.166 18.8332 74.3663 19.4918 73.5674 19.4918H63.5716V22.1256C63.5716 23.0473 64.2382 23.7059 65.171 23.7059H76.8994V23.7034Z" fill="#003A80"/>
<path id="Vector_4" fill-rule="evenodd" clip-rule="evenodd" d="M28.3873 31.6053C25.5888 31.6053 23.1896 29.761 22.3899 27.2588L15.86 2.37061C15.86 2.23905 15.86 2.1075 15.86 1.97594C15.86 1.18574 16.5266 0.5271 17.4595 0.5271H27.1882C27.9879 0.5271 28.6544 1.05418 28.7867 1.71197L33.8512 22.5194C33.8512 22.7833 34.1183 23.0456 34.5177 23.0456C34.784 23.0456 35.0503 22.7825 35.0503 22.5194L40.2479 1.71197C40.3811 1.05332 41.0476 0.5271 41.7142 0.5271H47.1781C48.111 0.5271 48.7775 1.18574 48.7775 1.97594C48.7775 2.1075 48.7775 2.23905 48.7775 2.37061L42.5139 26.7335C41.8473 29.4987 39.5814 31.6053 36.3834 31.6053H28.3873Z" fill="#003A80"/>
<path id="Vector_5" fill-rule="evenodd" clip-rule="evenodd" d="M1.59941 0.526245H11.0618C11.9947 0.526245 12.6612 1.18489 12.6612 1.97508V30.025C12.6612 30.9467 11.9947 31.6054 11.0618 31.6054H1.59941C0.799703 31.6054 0 30.9467 0 30.025V1.97508C0 1.18489 0.799703 0.526245 1.59941 0.526245Z" fill="#003A80"/>
</g>
</g>
<defs>
<clipPath id="clip0_299_3110">
<rect width="147" height="32" fill="white"/>
</clipPath>
</defs>
</svg>
