<svg width="58" height="86" viewBox="0 0 58 86" fill="none" xmlns="http://www.w3.org/2000/svg">
<g id="kamaz-6 1" clip-path="url(#clip0_299_2689)">
<path id="Vector" d="M17.2317 1.12409C16.9398 1.41269 16.6576 1.62433 16.5895 1.60509C16.4727 1.55699 16.0544 2.26887 16.0544 2.51899C16.0544 2.64405 15.7916 3.07695 15.597 3.27897C15.5289 3.34631 15.4706 3.48099 15.4706 3.56757C15.4706 3.74073 15.0327 4.30831 14.4976 4.83741C13.5732 5.73207 11.6564 6.98267 11.3159 6.89609C11.0532 6.82875 10.9656 7.07887 11.0921 7.51177C11.1894 7.86771 11.1116 8.78161 10.9851 8.78161C10.9364 8.78161 10.8975 8.85857 10.8975 8.95477C10.8975 9.06059 10.8002 9.21451 10.6932 9.32033C10.5764 9.41653 10.3818 9.65703 10.2651 9.83981C10.0023 10.2535 9.08774 11.1866 8.72773 11.4271C8.58178 11.5137 8.46502 11.6387 8.46502 11.7061C8.46502 11.7638 8.64989 11.9658 8.87368 12.1582C9.25315 12.4853 9.28234 12.543 9.32126 13.0817C9.36991 13.7359 9.24342 14.063 8.74719 14.544C8.57205 14.7268 8.40664 15.0154 8.34826 15.2462C8.29961 15.4675 8.18286 17.2953 8.07583 19.3059C7.89096 23.0096 7.86177 23.2308 7.43365 24.2506C7.35581 24.4237 7.29743 24.6546 7.29743 24.7604C7.29743 24.8759 7.23905 25.0971 7.17095 25.2607C6.48985 26.8383 6.31471 28.1948 6.30498 31.8696C6.30498 35.227 6.59688 37.0355 7.31689 38.0841C7.44338 38.2669 7.5796 38.4112 7.61852 38.4112C7.65744 38.4112 8.09529 38.8152 8.59151 39.3059C9.08774 39.7965 9.77856 40.4218 10.1288 40.7008C10.4791 40.9797 10.8683 41.3742 10.9753 41.5762C11.2283 42.0187 11.6467 43.3078 11.7245 43.9138C11.7732 44.2986 11.851 44.4333 12.25 44.7796C12.5029 45.0105 12.9116 45.3184 13.1451 45.4819C13.3786 45.6358 13.5927 45.7897 13.6219 45.8186C13.7289 45.934 14.6046 46.492 14.6824 46.492C14.9354 46.492 15.8889 47.6464 16.3852 48.5603C16.5311 48.82 16.7257 49.1567 16.8133 49.2914C16.9009 49.4357 17.0857 49.7339 17.2219 49.9552C17.4555 50.34 17.6014 50.4266 19.8198 51.5136C22.0091 52.5718 22.6707 52.9855 22.6707 53.2933C22.6707 53.505 23.6923 54.4477 24.1496 54.6594C24.7529 54.9287 25.5994 54.9287 26.154 54.669C26.5918 54.4574 27.4967 53.4569 27.594 53.0721C27.7108 52.6199 27.2827 51.3982 27.0005 51.3982C26.9227 51.3982 26.8254 51.3405 26.7864 51.2635C26.6405 51.0134 25.9594 50.6382 25.5313 50.5709C25.2978 50.542 25.074 50.4747 25.0448 50.4266C25.0156 50.3785 24.9086 50.34 24.7918 50.34C24.6264 50.34 24.6069 50.3785 24.6653 50.5516C24.7042 50.6767 24.7432 50.9268 24.7529 51.1096C24.7626 51.3597 24.7237 51.4463 24.5875 51.4752C24.1594 51.5617 23.9356 51.3982 23.4977 50.6575C23.2545 50.2438 23.0599 49.8494 23.0599 49.7724C23.0599 49.5993 22.6804 48.82 22.5637 48.7431C22.515 48.7142 22.4761 48.618 22.4761 48.5218C22.4761 48.4256 22.408 48.2909 22.3301 48.2236C22.2523 48.1563 22.1842 48.0408 22.1842 47.9735C22.1842 47.7137 21.4447 47.1365 20.5788 46.7325C19.7906 46.3573 19.6642 46.2707 19.3431 45.7705C19.022 45.2895 18.9928 45.1837 19.0609 44.8758C19.129 44.5391 19.1485 44.5199 19.5182 44.5391C19.7225 44.5488 20.0339 44.6257 20.1896 44.7027C20.355 44.7893 20.5398 44.8566 20.608 44.8566C20.6761 44.8566 20.968 44.9624 21.2404 45.0875C21.795 45.3376 22.0285 45.3953 22.9626 45.5396C23.3129 45.5973 23.7118 45.7032 23.8577 45.7801C23.994 45.8475 24.1594 45.9148 24.2275 45.9148C24.4221 45.9148 25.0934 46.5112 25.5118 47.0596C25.7356 47.3578 25.9789 47.656 26.047 47.7234C26.1151 47.7907 26.1735 47.8869 26.1735 47.9254C26.1735 47.9735 26.4751 48.1947 26.8546 48.4256C27.3411 48.7238 27.6719 49.0317 28.0221 49.4934C28.2849 49.8494 28.5086 50.1572 28.5086 50.1861C28.5086 50.3592 29.4038 51.4752 29.7249 51.706C30.4254 52.187 30.5422 52.3313 30.8925 53.0625C31.0773 53.4665 31.233 53.8224 31.233 53.8513C31.233 53.909 31.5736 54.6786 31.8557 55.2462C31.9725 55.4771 32.0017 55.4867 32.9358 55.4867C33.8017 55.4771 33.9671 55.4482 34.4147 55.2173C34.6969 55.073 34.9693 54.9576 35.018 54.9576C35.0666 54.9576 35.1931 55.1019 35.3001 55.2847C35.6601 55.8907 36.7401 56.1697 37.6937 55.91C38.0148 55.8234 38.0926 55.833 38.2386 55.9869C38.4137 56.1697 38.7737 57.3915 38.6959 57.5261C38.6667 57.5646 38.6861 57.6993 38.7348 57.8147C38.8126 58.036 38.8418 58.036 40.457 58.036H42.0916L42.6073 57.5165C42.8992 57.2279 43.2592 56.9393 43.4149 56.872C43.5997 56.795 43.6873 56.6892 43.6873 56.5545C43.6873 56.314 43.1522 55.4386 43.0062 55.4386C42.9576 55.4386 42.9089 55.3809 42.9089 55.3135C42.8992 55.2558 42.7727 55.0249 42.617 54.8133C42.1208 54.1399 41.4494 53.0336 41.4494 52.8893C41.4494 52.8123 41.391 52.7161 41.3229 52.6777C41.1673 52.5911 40.9629 52.0427 40.9629 51.7253C40.9629 51.6002 40.9046 51.4655 40.8267 51.4271C40.6613 51.3309 40.0483 50.542 39.8537 50.1572C39.7662 50.0033 39.4937 49.58 39.2505 49.2337C38.8223 48.6276 38.7932 48.5411 38.7153 47.7137C38.6667 47.2231 38.5694 46.6748 38.4915 46.492C38.2483 45.8667 38.044 45.1644 38.044 44.9817C38.044 44.8758 37.9758 44.7123 37.898 44.6065C37.8202 44.5103 37.7521 44.3275 37.7521 44.2024C37.7521 44.0678 37.6645 43.9523 37.5185 43.9042C37.2461 43.7984 36.7888 43.1923 36.4288 42.4612C36.0299 41.6531 36.0104 41.5954 35.8936 40.8162C35.6309 38.9884 35.3585 37.6416 35.232 37.5165C35.1736 37.4588 35.125 37.2953 35.125 37.1606C35.125 37.0259 35.0569 36.8239 34.979 36.7181C34.9012 36.6219 34.8331 36.4487 34.8331 36.3333C34.8331 36.2275 34.765 36.0543 34.6871 35.9485C34.6093 35.8523 34.5412 35.6695 34.5412 35.5444C34.5412 35.352 34.2006 34.6017 34.045 34.467C33.9477 34.3708 33.5682 33.5916 33.5682 33.4761C33.5682 33.4088 33.5195 33.303 33.4612 33.2453C33.3931 33.1779 33.3347 32.6392 33.3152 31.8504C33.286 30.4939 33.0622 27.9062 32.8968 27.1077C32.8385 26.8383 32.7217 26.213 32.6439 25.7128C32.5271 25.0586 32.3909 24.6257 32.1476 24.1928C31.953 23.8273 31.8168 23.4521 31.8168 23.2501C31.8168 22.9422 31.8557 22.8941 32.2644 22.7114C32.5952 22.5671 32.8385 22.5286 33.1693 22.5671C34.8136 22.7595 35.4558 22.846 36.098 22.9903C36.672 23.125 37.2656 23.1635 38.9196 23.1539C40.8073 23.1539 41.0602 23.1346 41.5467 22.9519C42.1597 22.7114 42.2278 22.6152 41.8873 22.4612C41.2451 22.1726 41.9359 21.5185 43.1522 21.2587C43.5803 21.1625 44.1057 21.0471 44.3197 20.9894C44.5338 20.9317 44.8646 20.8547 45.0495 20.8066C45.9836 20.5757 46.6744 20.1717 46.5771 19.9023C46.5382 19.8061 46.402 19.7484 46.2171 19.7484C46.003 19.7484 45.9252 19.7003 45.9252 19.5752C45.9252 19.3444 46.2171 19.075 46.4701 19.075C46.5674 19.0654 46.762 19.0077 46.8982 18.9307C47.0344 18.8537 47.2582 18.796 47.4041 18.7864C47.5501 18.7864 47.6863 18.7479 47.7155 18.6998C47.7447 18.6517 47.9101 18.5844 48.0852 18.5555C48.4452 18.4786 48.8344 18.19 49.0874 17.7955C49.3307 17.4204 49.1847 17.2953 48.6885 17.4396C48.3966 17.5262 47.3166 17.5166 44.1252 17.4107C39.5521 17.2664 37.0418 17.2761 35.3196 17.43C33.9866 17.555 32.099 17.9206 31.5055 18.1707C30.6395 18.5459 28.927 19.3925 28.4892 19.6714C27.9638 19.9985 27.7789 19.9985 26.1735 19.7003C25.4145 19.5656 25.0156 19.5464 23.9356 19.6041C21.9896 19.7099 21.9799 19.7099 21.7853 19.4694C21.6782 19.3444 21.6296 19.2001 21.6782 19.1327C21.7172 19.075 21.7464 17.6224 21.7464 15.9004C21.7464 12.0043 21.688 12.2063 22.9431 12.1197C23.848 12.0524 24.8794 11.8311 25.0448 11.6676C25.0934 11.6195 25.2199 11.5714 25.3075 11.5714C25.3951 11.5714 25.648 11.3886 25.8718 11.1577C26.261 10.7537 26.3194 10.7345 27.127 10.6286C28.5378 10.4459 29.6081 10.4266 29.8222 10.5709C30.0557 10.7441 30.6881 10.7441 31.019 10.5709C31.379 10.3882 31.6709 10.0418 31.8071 9.65703C32.0211 9.00287 32.0211 9.00287 30.9509 9.05097C29.5692 9.11831 29.073 8.91629 29.2773 8.36795C29.4719 7.86771 29.5887 7.83885 31.5638 7.63683C32.4103 7.55025 32.566 7.50215 32.8093 7.27127C33.1887 6.91533 33.1985 6.41509 32.819 6.28041C32.6633 6.22269 32.4201 6.11687 32.2644 6.03029C32.0601 5.91485 31.8849 5.89561 31.5833 5.94371C30.3573 6.17459 29.7054 5.96295 29.8319 5.37613C29.9389 4.85665 30.0752 4.78931 30.6395 4.97209C31.3595 5.20297 31.5249 5.18373 31.5249 4.84703C31.5249 4.55843 31.3303 4.33717 31.0579 4.29869C30.9606 4.28907 30.6103 4.23135 30.26 4.17363C29.8611 4.10629 28.7032 4.09667 27.127 4.13515C24.8307 4.19287 24.5291 4.17363 23.5756 3.99085C22.9918 3.88503 22.1355 3.74073 21.6491 3.68301C20.4328 3.52909 20.1409 3.30783 20.4717 2.78835C20.5496 2.67291 20.6371 2.48051 20.6761 2.36507C20.7247 2.18229 20.7053 2.15343 20.5593 2.21115C20.462 2.24001 20.3161 2.32659 20.2382 2.38431C20.0923 2.50937 18.7398 2.81721 18.3506 2.81721C18.2339 2.81721 18.0587 2.75949 17.9614 2.69215C17.8155 2.58633 17.8057 2.49013 17.903 1.73977C18.0003 0.970174 17.9711 0.604614 17.8155 0.604614C17.7766 0.604614 17.5138 0.835494 17.2317 1.12409ZM23.5075 4.76045C23.6631 4.87589 23.8091 4.98171 23.8188 4.99133C23.8383 5.00095 23.8869 5.16449 23.9356 5.35689C23.994 5.63587 23.9745 5.72245 23.7994 5.88599C23.488 6.17459 22.9334 6.23231 22.4274 6.03991C21.7074 5.77055 21.5809 5.44347 22.0285 4.94323C22.4274 4.50071 23.0599 4.42375 23.5075 4.76045ZM20.2771 12.341C20.4425 12.5045 20.4523 12.5911 20.3452 13.8898C20.2771 14.6498 20.1896 15.8331 20.1312 16.5257C20.0728 17.2087 20.0436 18.9307 20.0728 20.3448C20.102 22.8076 20.102 22.923 19.9269 22.9807C19.6058 23.0769 19.3917 22.7787 19.3333 22.1245C19.275 21.5089 19.1582 20.9509 18.8955 20.0466C18.7787 19.6233 18.7495 18.9499 18.7593 16.5353C18.769 12.1005 18.8176 11.8696 19.6739 12.0716C19.8977 12.1294 20.1701 12.2544 20.2771 12.341ZM23.4394 20.7585C23.9453 20.8355 24.4026 20.9413 24.4513 20.9894C24.5096 21.0471 24.6361 21.0952 24.7237 21.0952C24.821 21.0952 25.2297 21.2395 25.6286 21.4223C26.2902 21.7205 26.3778 21.7397 26.514 21.6147C26.5919 21.5281 26.66 21.3165 26.66 21.1337C26.66 20.6431 26.7767 20.6623 28.4113 21.4127C28.7616 21.5762 29.2968 21.9129 29.6081 22.163C30.2795 22.7114 31.1552 23.7503 31.3303 24.1928C31.3887 24.366 31.5055 24.6642 31.5833 24.847C31.7682 25.3184 31.9141 26.3092 31.9141 27.1077C31.9044 27.7041 31.846 28.1563 31.5346 29.7532C31.486 29.9937 31.3498 30.4266 31.233 30.7152C31.1163 31.0038 31.0092 31.3886 30.9898 31.5618C30.9703 31.9754 30.6298 32.3121 30.0265 32.5141C29.4914 32.6969 29.4524 32.7065 29.1216 32.7258C28.7422 32.745 28.7227 33.4088 29.1022 33.4088C29.4135 33.4088 29.9487 33.6685 30.2211 33.9571C31.019 34.7941 31.34 35.6984 30.9703 36.0639C30.7271 36.3044 30.2211 36.4872 29.8125 36.4872C29.4914 36.4872 29.3843 36.4199 28.9076 35.9004C28.0903 35.0153 27.8178 34.9191 26.9616 35.1981C26.6113 35.3039 26.4362 35.3232 26.2318 35.2366C25.9789 35.1404 25.9594 35.1019 26.0081 34.7748C26.0762 34.3612 26.6502 33.7936 27.0102 33.7936C27.127 33.7936 27.2924 33.6878 27.3897 33.5435C27.5454 33.303 27.5454 33.2645 27.3994 32.9567C27.3119 32.7835 27.2438 32.5911 27.2438 32.543C27.2438 32.4949 27.0297 32.139 26.7573 31.7542C26.4946 31.3694 26.2708 31.0134 26.2708 30.9557C26.2708 30.898 26.154 30.7248 26.0081 30.5613C25.8524 30.4074 25.648 30.1476 25.5508 29.9937C25.3367 29.6762 25.1129 29.3973 23.5172 27.5887C22.9139 26.8961 22.3788 26.2708 22.3301 26.1938C22.2718 26.1168 22.2037 25.7898 22.1647 25.4723C22.1258 25.1548 22.048 24.5873 21.9993 24.2217C21.8242 22.9903 21.688 21.1625 21.7561 20.9605C21.8826 20.5661 22.048 20.5469 23.4394 20.7585ZM23.5658 30.5036C23.634 30.5709 23.7507 30.619 23.8383 30.619C24.2275 30.619 25.2978 32.1774 25.2978 32.7354C25.2978 33.0625 25.1129 33.6012 24.9961 33.6012C24.9475 33.6012 24.9086 33.6878 24.9086 33.8032C24.9086 34.0822 24.461 34.6209 24.0329 34.8614C23.7021 35.0442 23.6534 35.1212 23.5464 35.6599C23.4199 36.314 23.274 36.5257 22.7485 36.7854C22.0966 37.1125 21.2112 36.9586 21.2112 36.5161C21.2112 36.0832 21.4836 35.5733 21.9215 35.2174C22.1745 35.0057 22.3788 34.7748 22.3788 34.6979C22.3788 34.6209 22.4274 34.4766 22.4956 34.3804C22.5831 34.2361 22.5637 34.1399 22.3885 33.8513C22.262 33.6589 22.1161 33.5146 22.0577 33.5242C21.9896 33.5339 21.6004 33.303 21.1917 32.9951C20.5885 32.5526 20.4231 32.3795 20.3452 32.0812C20.1604 31.4367 20.209 30.9557 20.5009 30.619L20.7636 30.3112L22.1064 30.3496C22.9529 30.3785 23.4977 30.4362 23.5658 30.5036ZM13.8457 33.4954C14.6532 34.0341 16.1419 35.3809 16.3365 35.7561C16.5408 36.1216 16.9884 36.3621 17.6111 36.4199C18.1949 36.468 19.1387 36.7469 19.2263 36.8816C19.2555 36.9297 19.4598 36.9682 19.6933 36.9682C20.2382 36.9682 20.462 37.1991 20.4134 37.6993C20.3842 38.036 20.3355 38.0937 19.8101 38.392C19.0901 38.8056 18.6231 38.8633 17.5333 38.6709C17.0663 38.5844 16.2198 38.4785 15.6457 38.4304C14.7214 38.3535 14.5268 38.3054 13.7484 37.9398C11.9873 37.1029 11.6662 36.6507 11.5202 34.7845C11.4618 34.1111 11.4716 34.0822 11.7343 33.8321C12.0164 33.582 12.9213 33.024 13.0673 33.024C13.1062 33.024 13.4565 33.2356 13.8457 33.4954ZM32.8774 38.873C33.6363 39.3636 33.9379 39.8542 34.4536 41.4896C34.5606 41.8359 34.7163 42.24 34.8039 42.4035C34.8817 42.5574 35.1542 43.0769 35.3974 43.5579C35.6504 44.0293 36.0299 44.7412 36.2634 45.126C36.4969 45.5108 36.6818 45.8571 36.6818 45.8956C36.6818 45.934 36.8764 46.2515 37.1099 46.5978C37.4504 47.1269 37.538 47.3386 37.5867 47.8292C37.6353 48.3775 37.6158 48.4352 37.4018 48.5699C36.925 48.8874 36.0591 48.7142 35.7477 48.2428C35.6017 48.0312 35.5823 47.7811 35.5823 46.8479C35.6017 45.7416 35.592 45.7128 35.339 45.4627C35.1931 45.3184 35.0374 45.126 34.979 45.0394C34.4147 44.0774 34.1715 43.7503 33.646 43.2501C33.3055 42.9326 32.8385 42.5767 32.6147 42.4612C31.8363 42.0668 30.9314 40.2775 31.0676 39.4117C31.0968 39.2193 31.1941 38.9595 31.2914 38.8249C31.4373 38.594 31.4763 38.5844 32.0309 38.6421C32.3617 38.6806 32.7314 38.7864 32.8774 38.873ZM28.7032 40.4506C29.2578 41.4896 29.8416 42.2015 30.4546 42.5767C31.126 42.9711 31.6417 43.404 31.9822 43.8561C32.3617 44.3467 33.0914 45.9918 33.3347 46.9249C33.5682 47.8196 34.1617 48.9547 34.7455 49.6281C34.8915 49.8013 35.0861 50.1476 35.1834 50.3977C35.2807 50.6575 35.4169 50.9749 35.485 51.1096C35.6407 51.4078 35.6504 51.8022 35.4947 51.9562C35.2612 52.187 34.8915 52.062 33.7725 51.3982C32.2936 50.5132 32.3033 50.5132 32.1963 50.0418C32.099 49.6185 31.6028 49.0702 30.4254 48.0793C29.8514 47.6079 29.4816 47.0596 29.4816 46.694C29.4816 46.5978 29.4233 46.492 29.3454 46.4631C29.2773 46.4343 29.18 46.29 29.1411 46.1361C29.1119 45.9918 29.0438 45.8475 29.0049 45.8186C28.9659 45.7897 28.8103 45.53 28.6741 45.2222C28.3919 44.645 27.8275 44.0966 26.8546 43.4809C26.5627 43.2982 26.1929 43.0192 26.0372 42.8556C25.794 42.5959 25.7745 42.5189 25.8329 42.1438C25.8718 41.9225 25.9886 41.5666 26.0956 41.3645C26.3486 40.8739 27.0297 40.1428 27.234 40.1428C27.3313 40.1428 27.487 40.0755 27.594 39.9985C27.6913 39.9215 27.9151 39.8542 28.0805 39.8542C28.3627 39.8542 28.4211 39.9119 28.7032 40.4506ZM15.996 41.3838C16.463 41.7686 17.1246 42.9711 17.4263 43.9716C17.4847 44.1543 17.6306 44.491 17.7668 44.7315C17.8933 44.972 18.0003 45.2029 18.0003 45.2414C18.0003 45.4915 18.7787 46.4247 19.2652 46.7806C20.1215 47.3867 20.1604 48.012 19.3528 48.2236C18.7204 48.3968 18.3701 48.3198 18.1949 47.9831C18.1074 47.8196 17.9225 47.5117 17.7765 47.2905C17.6306 47.0596 17.5138 46.8576 17.5138 46.8287C17.5138 46.7998 17.4165 46.6363 17.2998 46.4631C16.463 45.2799 16.0738 44.8181 15.7235 44.5776C15.5095 44.4237 15.0911 44.0774 14.8187 43.8176C14.303 43.3366 14.303 43.327 14.303 42.7402C14.303 41.6339 14.77 41.0567 15.5679 41.1818C15.7041 41.2106 15.8987 41.2972 15.996 41.3838ZM38.258 51.1288C38.6278 51.4271 39.9413 53.8513 40.0386 54.4093C40.0872 54.7363 40.058 54.8133 39.7662 55.1019C39.5034 55.3616 39.3478 55.4386 39.0753 55.4386C38.6569 55.4386 38.5402 55.2558 38.5402 54.6594C38.5402 54.4285 38.4915 53.7936 38.4234 53.2645L38.3067 52.2929H37.9175C37.4018 52.2929 37.0904 51.9658 37.2948 51.6483C37.3726 51.5329 37.4796 51.3501 37.5477 51.225C37.6742 50.9942 38.0148 50.9461 38.258 51.1288ZM0 64.8181V65.9244L28.9757 65.9051L57.9416 65.8763L57.9708 64.9624C58 63.8657 57.9514 63.7791 57.5038 63.9042C57.28 63.9715 47.2387 64.0004 28.9854 64.0004C4.15467 64.0004 0.758933 63.9811 0.457306 63.8561C0.262708 63.7791 0.0778393 63.7118 0.0486496 63.7118C0.0194598 63.7118 0 64.212 0 64.8181ZM12.2791 72.0427C12.0748 72.1293 11.6175 72.187 11.0143 72.187C9.35044 72.1966 9.5645 72.0716 7.20013 74.4285C6.05201 75.5732 5.0109 76.5352 4.89415 76.5641C4.77739 76.593 4.59252 76.593 4.47576 76.5545C4.29089 76.4968 4.27143 76.439 4.32981 76.1408C4.36873 75.9388 4.41738 74.9864 4.44657 73.9956L4.48549 72.2159L2.75357 72.1966C1.80003 72.187 0.904882 72.1581 0.768663 72.1197C0.564335 72.0812 0.496226 72.11 0.447576 72.2928C0.418386 72.4179 0.389196 75.4001 0.389196 78.9306V85.3568H4.52441L4.49522 82.7594L4.4563 80.1716L4.97198 79.6329C5.24442 79.3443 5.52659 79.1038 5.5947 79.1038C5.76984 79.1038 5.9839 79.3924 6.21741 79.9696C6.33417 80.2582 6.47039 80.5853 6.51904 80.6911C6.56769 80.7969 6.74283 81.249 6.90824 81.7012C7.08338 82.1533 7.29743 82.692 7.39473 82.9037C7.49203 83.1153 7.68663 83.6348 7.83258 84.0581C7.97853 84.4814 8.17313 84.9431 8.25097 85.0874L8.40664 85.3568L11.0435 85.3664C12.4835 85.376 13.7386 85.3664 13.8165 85.3568C14.0111 85.3279 14.0986 85.1836 14.1668 84.7507C14.2057 84.5487 14.3127 84.2793 14.4197 84.1543L14.6046 83.9138H16.5408C17.6014 83.9138 18.5452 83.9426 18.6328 83.9715C18.7982 84.0388 19.0512 84.5391 19.1582 85.0201L19.2263 85.3087H25.0253L25.0156 81.9224C25.0059 80.0177 25.0351 78.517 25.0837 78.4881C25.181 78.4304 25.5897 78.9402 25.5897 79.123C25.5897 79.2769 26.0275 80.5372 26.1151 80.6141C26.1443 80.6526 26.1735 80.7777 26.1735 80.9027C26.1735 81.0278 26.2318 81.249 26.3097 81.3933C26.3875 81.5376 26.4848 81.8359 26.514 82.0379C26.5529 82.2495 26.6113 82.4612 26.6502 82.5189C26.767 82.7113 27.2632 84.1639 27.3411 84.5679C27.4481 85.0586 27.5843 85.3183 27.7497 85.3664C27.8178 85.3856 28.5768 85.3856 29.433 85.3568L30.98 85.3087L31.1552 84.8277C31.3303 84.3659 31.3692 84.2216 31.6222 83.2404C31.6903 82.9999 31.7974 82.6728 31.8752 82.4996C31.953 82.3361 32.0114 82.1437 32.0114 82.0667C32.0114 81.9994 32.2157 81.3549 32.4493 80.643C32.6925 79.9311 32.8871 79.2288 32.8871 79.0942C32.8871 78.8344 33.2276 78.44 33.3444 78.5651C33.3833 78.6035 33.4028 80.1427 33.3833 81.9994L33.3541 85.3568H36.4288C38.8126 85.3568 39.5132 85.3279 39.5424 85.2317C39.9413 83.8368 39.7856 83.9138 42.1694 83.9138H44.1543L44.3489 84.2409C44.456 84.414 44.5727 84.7026 44.6116 84.8662C44.6506 85.0297 44.7673 85.2221 44.8841 85.2894C45.0495 85.376 46.5479 85.3953 51.3739 85.3568L57.6497 85.3087L57.6789 84.6257C57.7081 83.8657 57.5719 83.327 57.387 83.5097C57.3092 83.5867 56.6573 83.6252 55.2659 83.6252C53.6118 83.6252 53.2323 83.5963 53.0475 83.4713C52.7848 83.2885 52.775 83.1057 53.0183 82.7786C53.1156 82.6343 53.3005 82.2784 53.4172 81.9898C53.534 81.7012 53.748 81.2202 53.8745 80.9316C54.0107 80.643 54.2053 80.162 54.3124 79.8734C54.4972 79.3635 54.6529 78.9787 54.9254 78.3823C54.9935 78.2187 55.1297 77.9013 55.2173 77.6608C55.4508 77.0547 55.587 76.7469 55.9373 76.0158C56.1027 75.6694 56.2389 75.3135 56.2389 75.2173C56.2389 75.1211 56.2973 74.9287 56.3751 74.794C56.453 74.6497 56.5892 74.3611 56.6767 74.1495C56.7643 73.9378 56.8908 73.63 56.9686 73.4761C57.4259 72.4467 57.533 72.1678 57.4843 72.1293C57.4551 72.1004 57.0854 72.11 56.667 72.1485C55.9275 72.2255 48.8052 72.1581 48.4063 72.0716C48.2214 72.0331 48.2117 72.0908 48.1825 72.9566C48.1533 74.0725 47.949 73.9763 50.2745 73.9859C51.4615 73.9956 51.9188 74.034 51.9772 74.1206C52.0745 74.2745 52.0064 74.7171 51.8215 75.1115C51.7437 75.2654 51.6366 75.5059 51.588 75.6406C51.5296 75.7753 51.3739 76.1312 51.2377 76.4294C51.1015 76.7276 50.9847 76.997 50.9847 77.0259C50.9847 77.0547 50.8193 77.4395 50.6053 77.8724C50.4009 78.3149 50.1966 78.8152 50.1674 78.9787C50.1285 79.1519 50.0507 79.3154 50.002 79.3443C49.9534 79.3828 49.9144 79.479 49.9144 79.5752C49.9144 79.6714 49.8463 79.806 49.7685 79.8734C49.6907 79.9407 49.6226 80.0658 49.6226 80.1524C49.6226 80.2389 49.4669 80.6045 49.282 80.9797C49.0971 81.3452 48.9415 81.73 48.9415 81.8166C48.9415 81.9032 48.9025 81.9994 48.8539 82.0283C48.815 82.0571 48.7469 82.2784 48.7079 82.5285C48.6398 83.0576 48.5133 83.2404 48.2117 83.2404C47.9004 83.2404 47.8128 83.0865 47.6863 82.3842C47.6279 82.0379 47.5404 81.7204 47.482 81.6627C47.4333 81.6146 47.3847 81.4318 47.3847 81.2587C47.3847 81.0951 47.3166 80.9027 47.2387 80.8354C47.1609 80.768 47.0928 80.6141 47.0928 80.4987C47.0928 80.3736 47.0247 80.1524 46.9468 80.0081C46.869 79.8541 46.8009 79.5944 46.8009 79.4212C46.8009 79.2577 46.7328 79.0557 46.6549 78.9787C46.5868 78.9018 46.4895 78.7286 46.4506 78.5843C46.4214 78.4496 46.3533 78.3053 46.3046 78.2765C46.256 78.2476 46.2171 78.1033 46.2171 77.959C46.2171 77.8147 46.149 77.6127 46.0711 77.5069C45.9933 77.4107 45.9252 77.1798 45.9252 77.0066C45.9252 76.8335 45.8765 76.593 45.8084 76.4775C45.6236 76.1504 45.3511 75.3231 45.3414 75.1019C45.3414 74.9864 45.2733 74.8421 45.1954 74.7748C45.1176 74.7074 45.0495 74.5824 45.0495 74.4862C45.0495 74.39 44.9814 74.1591 44.9035 73.9763C44.8257 73.7839 44.7576 73.5049 44.7576 73.3606C44.7479 73.2163 44.6506 72.9181 44.5241 72.7065C44.2516 72.2447 44.0765 72.1966 42.4419 72.1678L41.2451 72.1581L41.0505 72.5045C40.9532 72.6969 40.8656 72.9662 40.8656 73.1105C40.8656 73.2644 40.7975 73.5049 40.7197 73.6589C40.6418 73.8032 40.5737 73.9956 40.5737 74.0725C40.5737 74.1495 40.5154 74.3323 40.4375 74.4669C40.3694 74.6112 40.204 75.0538 40.0775 75.4482C39.9607 75.8426 39.7953 76.2755 39.7272 76.4102C39.6591 76.5449 39.6007 76.7469 39.6007 76.8719C39.6007 76.9874 39.5618 77.1605 39.5132 77.2567C39.4645 77.3433 39.3478 77.6127 39.2602 77.8532C39.1726 78.0937 39.0364 78.4304 38.9586 78.6035C38.8807 78.7767 38.8223 79.0268 38.8223 79.1519C38.8223 79.3731 38.6667 79.7964 38.3748 80.3832C38.2969 80.5372 38.2386 80.7488 38.2386 80.8642C38.2386 80.9797 38.151 81.3356 38.0537 81.6531C37.9175 82.086 37.8202 82.2399 37.6742 82.2591C37.4212 82.2976 37.1975 81.9417 37.3531 81.7589C37.431 81.6723 37.4504 80.1716 37.4407 76.8816C37.4115 72.9085 37.3921 72.1293 37.2753 72.1581C37.2072 72.1774 36.1466 72.187 34.9304 72.1966L32.7217 72.2062L32.5952 72.5045C32.5271 72.668 32.4298 72.9085 32.3909 73.0432C32.352 73.1779 32.1574 73.7166 31.9628 74.2457C31.7682 74.7748 31.5444 75.4386 31.4665 75.7175C31.3984 75.9869 31.2622 76.3813 31.1746 76.5833C30.9022 77.2375 30.6784 77.9879 30.5519 78.6709C30.406 79.5174 30.1043 79.7964 29.7346 79.4309C29.6373 79.3347 29.5789 79.1134 29.5789 78.8152C29.5789 78.5651 29.5108 78.2284 29.433 78.0841C29.3551 77.9301 29.287 77.6704 29.287 77.5165C29.287 77.3529 29.2189 77.1413 29.1411 77.0451C29.0632 76.9393 28.9951 76.7757 28.9951 76.6699C28.9951 76.5737 28.9368 76.3717 28.8589 76.237C28.7324 75.9869 28.5573 75.3905 28.4113 74.6786C28.3822 74.4958 28.2751 74.1976 28.1778 74.0244C28.0805 73.8416 28.0319 73.6781 28.0611 73.6492C28.0903 73.6204 28.0611 73.5049 27.993 73.3895C27.9346 73.2837 27.8665 73.0817 27.8567 72.947C27.847 72.8219 27.7497 72.6007 27.6524 72.466L27.4675 72.2255L25.2491 72.2062C23.8577 72.187 22.9918 72.1389 22.9139 72.0812C22.8166 72.0042 22.7583 72.0138 22.6999 72.1004C22.5734 72.3024 22.5442 79.5752 22.6707 80.922C22.7777 81.9513 22.768 82.1245 22.6415 82.2495C22.3301 82.567 21.8923 81.9898 21.8923 81.2587C21.8923 81.0855 21.8534 80.9123 21.795 80.8835C21.7464 80.8546 21.6977 80.7392 21.6977 80.6237C21.6977 80.5179 21.6393 80.3159 21.5615 80.1812C21.4836 80.0369 21.3474 79.6136 21.2599 79.2481C21.1626 78.8729 21.0361 78.5073 20.968 78.4304C20.8999 78.3534 20.822 78.1803 20.7928 78.0456C20.7636 77.9109 20.6955 77.6608 20.6371 77.4876C20.3842 76.7469 20.3161 76.5352 20.2382 76.2659C20.1117 75.8041 19.9366 75.3231 19.7906 75.0345C19.7128 74.8806 19.6544 74.6882 19.6544 74.592C19.6544 74.5054 19.5863 74.3419 19.5085 74.2361C19.4306 74.1399 19.3625 73.9667 19.3625 73.8705C19.3625 73.4665 18.9636 72.389 18.7982 72.3217C18.7106 72.2832 18.2144 72.2351 17.7084 72.2159C17.2025 72.187 16.5603 72.1581 16.2879 72.1485C15.8208 72.1197 15.7819 72.1293 15.636 72.4083C15.5484 72.5718 15.4511 72.8315 15.4122 72.9951C15.3343 73.3606 15.1008 74.0918 14.9841 74.3419C14.9451 74.4477 14.8089 74.8133 14.6922 75.1596C14.5851 75.5059 14.4586 75.8715 14.41 75.9773C14.2349 76.3717 14.1181 76.7565 14.05 77.1317C14.0208 77.3433 13.9332 77.6127 13.8554 77.7281C13.7776 77.8436 13.7192 78.0263 13.7192 78.1225C13.7192 78.2187 13.6511 78.3823 13.5732 78.4881C13.4954 78.5843 13.4273 78.7382 13.4273 78.8248C13.4273 78.9883 13.2132 79.6617 12.7948 80.7873C12.6683 81.1528 12.5224 81.6723 12.4932 81.9417C12.4056 82.6055 12.3083 82.7594 11.9678 82.7594C11.6467 82.7594 11.5397 82.6151 11.4326 82.0475C11.4035 81.8359 11.3062 81.5761 11.2283 81.4703C11.1505 81.3645 11.0921 81.1817 11.0921 81.0566C11.0921 80.8835 10.9851 80.6237 10.4013 79.4693C10.3526 79.3731 10.3137 79.2192 10.3137 79.123C10.3137 79.0268 10.2456 78.8633 10.1678 78.7575C10.0899 78.6613 10.0218 78.4881 10.0218 78.3823C10.0218 78.2765 9.93424 78.0167 9.82721 77.8051C9.72018 77.5934 9.64234 77.3818 9.63261 77.3433C9.63261 77.2952 9.5645 77.199 9.48666 77.1221C9.40882 77.0355 9.34072 76.8912 9.34072 76.795C9.34072 76.6988 9.3018 76.5833 9.24342 76.5545C9.19477 76.5256 9.14612 76.314 9.14612 76.0927C9.14612 75.6983 9.17531 75.6598 10.9948 73.909C13.0284 71.9465 13.2521 71.6194 12.2791 72.0427ZM17.0079 78.5939C17.1246 78.9595 17.2219 79.325 17.2219 79.4116C17.2219 79.4982 17.2706 79.604 17.3192 79.6329C17.3776 79.6617 17.4165 79.7676 17.4165 79.8541C17.4165 79.9407 17.5722 80.3736 17.7668 80.8065C17.9614 81.2394 18.0976 81.6627 18.0684 81.7493C17.9614 82.009 17.4944 82.1052 16.4241 82.0667C14.9743 82.0283 14.9743 82.0186 15.4803 80.7392C15.7041 80.1812 15.8987 79.6233 15.9279 79.4886C15.9571 79.3539 16.0154 79.2 16.0544 79.1519C16.0933 79.0942 16.1614 78.9018 16.2003 78.719C16.2879 78.3053 16.5019 77.9494 16.6673 77.9494C16.7452 77.9494 16.8911 78.238 17.0079 78.5939ZM42.3251 78.1514C42.3932 78.2572 42.5392 78.6805 42.6657 79.0845C42.977 80.0946 43.1814 80.643 43.337 80.9316C43.4149 81.0663 43.5024 81.326 43.5414 81.5184C43.5997 81.8455 43.59 81.8743 43.2884 81.9802C42.9089 82.1148 41.2646 82.1245 40.924 81.9898C40.6224 81.8743 40.6029 81.6627 40.8559 81.1047C40.9629 80.8739 41.1186 80.4313 41.2159 80.1139C41.3132 79.7964 41.4202 79.4886 41.4592 79.4405C41.4883 79.3828 41.6148 79.0268 41.7413 78.642C41.9748 77.9301 42.1403 77.7955 42.3251 78.1514Z" fill="#0967D2"/>
</g>
<defs>
<clipPath id="clip0_299_2689">
<rect width="58" height="86" fill="white"/>
</clipPath>
</defs>
</svg>
