<svg width="40" height="40" viewBox="0 0 40 40" fill="none" xmlns="http://www.w3.org/2000/svg">
<g clip-path="url(#clip0_299_2649)">
<path d="M20 30H8.33333C7.44928 30 6.60143 29.6488 5.97631 29.0237C5.35119 28.3986 5 27.5507 5 26.6667V10C5 9.11597 5.35119 8.26812 5.97631 7.643C6.60143 7.01788 7.44928 6.66669 8.33333 6.66669H31.6667C32.5507 6.66669 33.3986 7.01788 34.0237 7.643C34.6488 8.26812 35 9.11597 35 10V22.5" stroke="#005BE2" stroke-width="2" stroke-linecap="round" stroke-linejoin="round"/>
<path d="M5 10L20 20L35 10" stroke="#005BE2" stroke-width="2" stroke-linecap="round" stroke-linejoin="round"/>
<path d="M25 30H35" stroke="#005BE2" stroke-width="2" stroke-linecap="round" stroke-linejoin="round"/>
<path d="M30 25L35 30L30 35" stroke="#005BE2" stroke-width="2" stroke-linecap="round" stroke-linejoin="round"/>
</g>
<defs>
<clipPath id="clip0_299_2649">
<rect width="40" height="40" fill="white"/>
</clipPath>
</defs>
</svg>
