<svg width="40" height="40" viewBox="0 0 40 40" fill="none" xmlns="http://www.w3.org/2000/svg">
<g clip-path="url(#clip0_299_2605)">
<path d="M10 8.33333C10 7.44928 10.3512 6.60143 10.9763 5.97631C11.6014 5.35119 12.4493 5 13.3333 5H26.6667C27.5507 5 28.3986 5.35119 29.0237 5.97631C29.6488 6.60143 30 7.44928 30 8.33333V31.6667C30 32.5507 29.6488 33.3986 29.0237 34.0237C28.3986 34.6488 27.5507 35 26.6667 35H13.3333C12.4493 35 11.6014 34.6488 10.9763 34.0237C10.3512 33.3986 10 32.5507 10 31.6667V8.33333Z" stroke="#005BE2" stroke-width="2" stroke-linecap="round" stroke-linejoin="round"/>
<path d="M18.333 6.66669H21.6663" stroke="#005BE2" stroke-width="2" stroke-linecap="round" stroke-linejoin="round"/>
<path d="M20 28.3333V28.3496" stroke="#005BE2" stroke-width="2" stroke-linecap="round" stroke-linejoin="round"/>
</g>
<defs>
<clipPath id="clip0_299_2605">
<rect width="40" height="40" fill="white"/>
</clipPath>
</defs>
</svg>
