<svg width="40" height="40" viewBox="0 0 40 40" fill="none" xmlns="http://www.w3.org/2000/svg">
<g clip-path="url(#clip0_299_4357)">
<path d="M39.9892 18.2817C39.9842 18.2058 39.97 18.1333 39.945 18.0617C39.9358 18.035 39.9292 18.0092 39.9175 17.9833C39.8775 17.8967 39.8267 17.815 39.7567 17.7458L39.7558 17.745L35 12.9883V8.33333C35 8.315 34.9908 8.29917 34.9892 8.28083C34.9842 8.2075 34.97 8.13667 34.9467 8.06667C34.9375 8.04 34.9308 8.01417 34.9183 7.98833C34.8775 7.9 34.8267 7.81583 34.755 7.74417L27.255 0.244167C27.1833 0.1725 27.0992 0.120833 27.01 0.08C26.985 0.0691667 26.96 0.0616667 26.935 0.0533333C26.8633 0.0283333 26.79 0.0141667 26.715 0.00916667C26.6983 0.00833333 26.6833 0 26.6667 0H5.83333C5.37333 0 5 0.373333 5 0.833333V12.9883L0.244167 17.7442L0.2425 17.7458C0.1725 17.8158 0.1225 17.8975 0.0825 17.9833C0.0708333 18.0092 0.0641667 18.035 0.055 18.0617C0.03 18.1333 0.015 18.2058 0.0108333 18.2817C0.00916667 18.3 0 18.315 0 18.3333V34.1667C0 34.6267 0.373333 35 0.833333 35H5V39.1667C5 39.6267 5.37333 40 5.83333 40H34.1667C34.6267 40 35 39.6267 35 39.1667V35H39.1667C39.6267 35 40 34.6267 40 34.1667V18.3333C40 18.315 39.9908 18.3 39.9892 18.2817ZM37.155 17.5H35V15.345L37.155 17.5ZM32.155 7.5H27.5V2.845L32.155 7.5ZM6.66667 1.66667H25.8333V8.33333C25.8333 8.79333 26.2067 9.16667 26.6667 9.16667H33.3333V13.3333V17.5H6.66667V13.3333V1.66667ZM5 15.345V17.5H2.845L5 15.345ZM33.3333 38.3333H6.66667V35H33.3333V38.3333ZM38.3333 33.3333H1.66667V19.1667H5.83333H34.1667H38.3333V33.3333Z" fill="#005BE2"/>
<path d="M15.2118 22.2667C14.9426 22.0359 14.6385 21.8726 14.2976 21.7784C13.9576 21.6842 13.6268 21.6367 13.306 21.6367H10.5293V31.6667H12.201V27.6434H13.391C13.7401 27.6434 14.0801 27.5817 14.411 27.4592C14.7418 27.3367 15.0343 27.1476 15.2893 26.8926C15.5443 26.6376 15.7493 26.3192 15.906 25.9359C16.0618 25.5534 16.1401 25.1076 16.1401 24.5976C16.1401 24.0309 16.0526 23.5584 15.8776 23.1809C15.7026 22.8034 15.481 22.4984 15.2118 22.2667ZM14.1426 25.8376C13.8876 26.1159 13.5618 26.2551 13.1651 26.2551H12.2018V23.0676H13.1651C13.5618 23.0676 13.8876 23.1901 14.1426 23.4359C14.3976 23.6817 14.5251 24.0734 14.5251 24.6117C14.5251 25.1501 14.3976 25.5584 14.1426 25.8376Z" fill="#005BE2"/>
<path d="M25.6025 31.6667H27.3167V27.3601H29.8809V25.9009H27.3034V23.1667H30.0934V21.6367H25.6025V31.6667Z" fill="#005BE2"/>
<path d="M20.0632 21.6367H17.5415V31.6667H20.049C21.3432 31.6667 22.3232 31.2301 22.989 30.3567C23.6548 29.4826 23.9873 28.2526 23.9873 26.6659C23.9873 25.0792 23.6548 23.8442 22.989 22.9609C22.3232 22.0784 21.3482 21.6367 20.0632 21.6367ZM22.1248 28.2025C22.0165 28.6425 21.8623 29.0084 21.6648 29.3009C21.4665 29.5934 21.2307 29.8134 20.9565 29.9592C20.6823 30.1059 20.3848 30.1792 20.064 30.1792H19.2565V23.1242H20.064C20.3848 23.1242 20.6823 23.1976 20.9565 23.3442C21.2307 23.4901 21.4665 23.7101 21.6648 24.0026C21.8632 24.2951 22.0165 24.6634 22.1248 25.1076C22.2332 25.5517 22.2882 26.0709 22.2882 26.6659C22.2882 27.2517 22.2332 27.7634 22.1248 28.2025Z" fill="#005BE2"/>
</g>
<defs>
<clipPath id="clip0_299_4357">
<rect width="40" height="40" fill="white"/>
</clipPath>
</defs>
</svg>
