<svg width="206" height="33" viewBox="0 0 206 33" fill="none" xmlns="http://www.w3.org/2000/svg">
<g id="RZD 1" clip-path="url(#clip0_299_3071)">
<g id="Group">
<path id="Vector" d="M52.1205 2.92402V4.12915H62.3584C63.041 4.12915 64.0648 4.12915 64.7369 4.81839C65.4091 5.50763 65.4195 6.54149 65.4195 7.22029V17.5589C65.4195 18.2481 65.4195 19.282 64.7369 19.9608C64.0544 20.65 63.0306 20.65 62.3584 20.65H57.4153C56.5631 20.65 55.4525 20.65 55.0367 19.7018C54.6107 18.7536 55.2072 17.8931 55.7193 17.1955L62.3791 8.23535H52.1412L48.046 13.7493C47.3593 14.6724 46.7657 15.4724 46.7657 16.5062C46.7657 17.5401 47.3179 18.2836 48.046 19.2632L49.0698 20.6417C50.0936 22.0202 51.1174 23.3986 52.4824 24.0879C53.8475 24.7771 55.4607 24.7771 57.6945 24.7771H62.1206C64.6852 24.7771 68.5115 24.7771 71.0762 22.1872C73.6409 19.5974 73.6409 15.817 73.6409 14.4385V10.3031C73.6409 8.92459 73.6409 5.14421 71.0762 2.55434C68.5115 -0.0355374 64.6852 -0.0355374 62.1206 -0.0355374L55.0471 -0.0378349C54.3646 -0.0380437 53.5124 -0.0378349 52.834 0.651406C52.1515 1.34065 52.1515 2.20115 52.1515 2.88622" fill="#C4151C"/>
<path id="Vector_2" d="M39.9177 8.27087H50.0522L37.8494 24.8544H27.7148L39.9177 8.27087Z" fill="#C4151C"/>
<path id="Vector_3" d="M0 11.1949C0 10.5057 0 9.64518 0.68253 8.96012C1.36506 8.27505 2.21719 8.27087 2.89558 8.27087H20.0416C22.2546 8.27087 23.8886 8.27087 25.2536 8.96012C26.6187 9.64936 27.6321 11.0278 28.6663 12.4063L29.6901 13.7848C30.416 14.7623 30.9703 15.5079 30.9703 16.5418C30.9703 17.5756 30.3767 18.3756 29.6901 19.2987L25.5949 24.8126H15.3569L22.0168 15.8525C22.5276 15.1633 23.1254 14.3028 22.6993 13.3462C22.2732 12.398 21.1646 12.398 20.3208 12.398H12.2959V33.0752H4.10552V12.398H0.0103414V11.1907" fill="#C4151C"/>
</g>
<g id="Group_2">
<path id="Vector_4" d="M83.3514 21.9305C82.7371 22.7743 82.1104 23.6056 81.4962 24.4368V24.9088H83.2273C84.0753 23.7685 84.5179 23.1732 84.5179 22.4861H86.2139V24.9088H87.8354V22.4861H89.5314C89.5314 23.169 89.974 23.7643 90.822 24.9088H92.5531V24.4368L90.6855 21.9305C92.2574 20.74 92.2574 20.74 92.2574 19.1735V18.6535H90.489V19.1735C90.489 21.0721 90.489 21.0721 88.6462 21.0721H87.8354V18.6493H86.2139V21.0721H85.4031C83.5603 21.0721 83.5603 21.0721 83.5603 19.1735V18.6535H81.7919V19.1735C81.7919 20.7358 81.7919 20.7358 83.3514 21.9305Z" fill="#231F20"/>
<path id="Vector_5" fill-rule="evenodd" clip-rule="evenodd" d="M95.761 21.095C95.761 19.7186 95.761 19.7186 97.2709 19.7186C98.7807 19.7186 98.7807 19.7186 98.7807 21.095H95.761ZM95.761 22.2103H97.2709C98.8552 22.1977 99.3226 22.2228 99.8562 22.0985L100.483 21.9498V21.342C100.483 20.3124 100.483 18.3762 97.5666 18.3762H96.9772C94.0609 18.3762 94.0609 20.3103 94.0609 21.3629V21.9582C94.0609 23.0735 94.0853 24.9449 97.2874 24.9449C97.7673 24.9449 98.8469 24.9449 100.018 24.6483V23.3095H99.6866L98.5077 23.6061H97.2543C95.7445 23.6057 95.7445 23.6057 95.7445 22.2297L95.761 22.2103Z" fill="#231F20"/>
<path id="Vector_6" d="M103.207 18.5469C103.207 19.4888 103.133 22.3273 101.66 24.3114V24.796H103.465C104.535 23.3569 104.535 21.4751 104.535 19.9295H107.079V24.796H108.7V18.5511H103.219" fill="#231F20"/>
<path id="Vector_7" fill-rule="evenodd" clip-rule="evenodd" d="M112.307 21.095C112.307 19.7186 112.307 19.7186 113.819 19.7186C115.329 19.7186 115.329 19.7186 115.329 21.095H112.309M112.309 22.2103H113.821C115.405 22.1977 115.873 22.2228 116.407 22.0985L117.033 21.9498V21.342C117.033 20.3124 117.033 18.3762 114.117 18.3762H113.528C110.611 18.3762 110.611 20.3103 110.611 21.3629V21.9582C110.611 23.0735 110.636 24.9449 113.838 24.9449C114.318 24.9449 115.397 24.9449 116.568 24.6483V23.3095H116.237L115.058 23.6061H113.805C112.295 23.6057 112.295 23.6057 112.295 22.2297L112.309 22.2103Z" fill="#231F20"/>
<path id="Vector_8" d="M123.062 21.7216V21.5355C124.316 21.2138 124.316 20.4327 124.316 20.134C124.316 19.5388 124.316 18.3483 121.337 18.3483C120.895 18.3483 119.863 18.3483 118.69 18.6469V19.9857H119.021L120.2 19.6871H121.563C122.508 19.6871 122.558 19.6871 122.558 20.3805C122.558 21.0635 122.558 21.0635 121.563 21.0635H120.2V22.1788H121.563C122.508 22.1788 122.558 22.1788 122.558 22.8617C122.558 23.5573 122.558 23.5573 121.563 23.5573H120.2L119.021 23.2586H118.69V24.5974C119.869 24.894 120.903 24.894 121.337 24.894C124.316 24.894 124.316 23.7035 124.316 23.1082C124.316 22.8116 124.316 22.0305 123.062 21.7193" fill="#231F20"/>
<path id="Vector_9" d="M131.128 18.5469V20.8861H127.819V18.5469H126.165V24.8545H127.819V22.3481H131.128V24.8545H132.576V18.5469H131.128Z" fill="#231F20"/>
</g>
<g id="Group_3">
<path id="Vector_10" fill-rule="evenodd" clip-rule="evenodd" d="M137.747 21.7216C139.038 21.7216 139.038 21.7216 139.038 22.6886C139.038 23.6556 139.038 23.6556 137.747 23.6556H136.456V21.7216H137.747ZM143.538 18.5886H141.917V24.8336H143.538V18.5886ZM137.974 24.8336C139.927 24.8336 140.746 24.3992 140.746 22.7032C140.746 21.7738 140.746 20.4266 138.202 20.4266C137.834 20.4266 137.207 20.4642 136.471 20.6501V18.5657H134.849V24.8106H137.972L137.974 24.8336Z" fill="#231F20"/>
<path id="Vector_11" fill-rule="evenodd" clip-rule="evenodd" d="M147.261 21.095C147.261 19.7186 147.261 19.7186 148.771 19.7186C150.281 19.7186 150.281 19.7186 150.281 21.095H147.261ZM147.261 22.2103H148.771C150.355 22.1977 150.823 22.2228 151.356 22.0985L151.983 21.9498V21.342C151.983 20.3124 151.983 18.3762 149.067 18.3762H148.477C145.561 18.3762 145.561 20.3103 145.561 21.3629V21.9582C145.561 23.0735 145.586 24.9449 148.787 24.9449C149.267 24.9449 150.347 24.9449 151.518 24.6483V23.3095H151.187L150.008 23.6061H148.754C147.245 23.6057 147.245 23.6057 147.245 22.2297L147.261 22.2103Z" fill="#231F20"/>
<path id="Vector_12" fill-rule="evenodd" clip-rule="evenodd" d="M158.637 21.5127C158.637 19.8376 158.637 19.8752 160.829 19.8752C161.125 19.8752 161.53 19.9122 162.02 20.0239V22.6973L160.448 23.0942C158.63 23.0944 158.63 23.0944 158.63 21.5068M157.673 25.8302V27.2442C158.852 27.5429 159.803 27.5429 160.175 27.5429C163.526 27.5429 163.629 26.0788 163.629 24.41V18.6037H163.1L162.314 19.1989C161.774 18.4909 160.459 18.4679 160.039 18.4679C156.916 18.4679 156.916 20.4521 156.916 21.3502V21.6488C156.916 22.6911 156.916 24.4058 159.563 24.4058C160.361 24.4058 161.307 24.1823 162.004 23.6623V24.1823C162.004 26.1038 161.967 26.1164 160.014 26.1164H159.166L157.987 25.8177H157.656L157.673 25.8302Z" fill="#231F20"/>
<path id="Vector_13" fill-rule="evenodd" clip-rule="evenodd" d="M168.564 18.4006C165.441 18.4006 165.441 20.2616 165.441 21.3873V21.9826C165.441 23.0979 165.441 24.9693 168.564 24.9693H169.154C172.277 24.9693 172.277 23.1084 172.277 21.9826V21.3873C172.277 20.272 172.277 18.4006 169.154 18.4006H168.564ZM168.858 19.777C170.589 19.777 170.589 19.777 170.589 21.6756C170.589 23.5741 170.589 23.5741 168.858 23.5741C167.127 23.5741 167.127 23.5741 167.127 21.6756C167.127 19.777 167.127 19.777 168.858 19.777Z" fill="#231F20"/>
<path id="Vector_14" fill-rule="evenodd" clip-rule="evenodd" d="M179.112 21.7215C179.112 23.5825 179.112 23.5825 177.307 23.5825C176.864 23.5825 176.3 23.5825 175.723 23.4335V20.3006L177.294 19.9038C179.112 19.9038 179.112 19.9284 179.112 21.7146M174.107 18.5817V27.3539H175.729V24.6387C176.465 24.8248 177.055 24.9728 177.942 24.9728C180.817 24.9728 180.817 22.8425 180.817 21.9861V21.3909C180.817 20.3487 180.817 18.4042 178.128 18.4042C176.753 18.4042 175.956 19.012 175.522 19.3461L174.932 18.5525H174.122L174.107 18.5817Z" fill="#231F20"/>
<path id="Vector_15" fill-rule="evenodd" clip-rule="evenodd" d="M185.731 18.4006C182.608 18.4006 182.608 20.2616 182.608 21.3873V21.9826C182.608 23.0979 182.608 24.9693 185.731 24.9693H186.32C189.443 24.9693 189.443 23.1084 189.443 21.9826V21.3873C189.443 20.272 189.443 18.4006 186.32 18.4006H185.731ZM186.025 19.777C187.756 19.777 187.756 19.777 187.756 21.6756C187.756 23.5741 187.756 23.5741 186.025 23.5741C184.293 23.5741 184.293 23.5741 184.293 21.6756C184.293 19.777 184.293 19.777 186.025 19.777Z" fill="#231F20"/>
</g>
<g id="Group_4">
<path id="Vector_16" d="M194.211 18.4006C193.621 18.4006 192.848 18.4006 191.667 18.6993V20.0381H191.998L193.177 19.7415H194.687C195.497 19.7415 195.497 19.7415 195.497 20.2135C195.497 20.5352 195.497 20.6354 194.871 20.7461L193.396 21.1179C192.548 21.3289 191.369 21.6505 191.369 22.9413C191.369 23.7976 191.369 24.9505 194.347 24.9505C194.937 24.9505 195.71 24.9505 196.891 24.6539V23.3151H196.56C196.068 23.4515 195.603 23.5637 195.419 23.6138H193.872C193.061 23.6138 193.061 23.6138 193.061 23.1418C193.061 22.8577 193.061 22.7951 193.404 22.6948L194.227 22.4713L195.16 22.2353C196.008 22.0244 197.187 21.7153 197.187 20.412C197.187 19.5556 197.187 18.4027 194.209 18.4027" fill="#231F20"/>
<path id="Vector_17" d="M204.759 25.0633L205.963 24.1568C205.52 23.5616 205.52 23.5616 205.52 22.5068V18.6429H203.899V23.1752L202.327 23.572C200.656 23.572 200.656 23.572 200.656 21.8489V18.6324H199.034V22.0995C199.034 23.3276 199.034 25.0445 201.495 25.0445C202.786 25.0445 203.584 24.4367 204.019 24.1025L204.742 25.0695" fill="#231F20"/>
<path id="Vector_18" fill-rule="evenodd" clip-rule="evenodd" d="M81.9036 3.61329V12.3854H83.672V9.96266H85.0722C87.4714 9.96266 89.3535 9.96266 89.3535 6.78798C89.3535 3.59241 87.4735 3.59241 85.0722 3.59241H81.9078M83.6761 8.3962V5.15886H85.8065C87.3908 5.15886 87.4652 5.15886 87.4652 6.7838C87.4652 8.35861 87.4652 8.3962 85.8065 8.3962H83.6761Z" fill="#231F20"/>
<path id="Vector_19" fill-rule="evenodd" clip-rule="evenodd" d="M93.8996 5.99426C90.7765 5.99426 90.7765 7.85521 90.7765 8.98097V9.57622C90.7765 10.6915 90.7765 12.5629 93.8996 12.5629H94.4891C97.6122 12.5629 97.6122 10.702 97.6122 9.57622V8.98097C97.6122 7.86565 97.6122 5.99426 94.4891 5.99426H93.8996ZM94.1933 7.37066C95.9245 7.37066 95.9245 7.37066 95.9245 9.2692C95.9245 11.1677 95.9245 11.1677 94.1933 11.1677C92.4622 11.1677 92.4622 11.1677 92.4622 9.2692C92.4622 7.37066 92.4622 7.37066 94.1933 7.37066Z" fill="#231F20"/>
<path id="Vector_20" d="M102.38 12.5525C102.822 12.5525 103.964 12.5525 105.151 12.2539V10.9151H104.82L103.629 11.2116H102.93C100.878 11.2116 100.878 11.2116 100.878 9.2776C100.878 7.34354 100.878 7.34354 102.388 7.34354C103.666 7.34354 103.666 7.34354 103.972 8.57165L105.447 8.19987C105.447 7.60462 105.447 6.00684 102.675 6.00684H102.086C99.1696 6.00684 99.1696 7.86779 99.1696 8.99355V9.5888C99.1696 10.7041 99.1696 12.5755 102.375 12.5755" fill="#231F20"/>
<path id="Vector_21" d="M110.239 12.5525C110.682 12.5525 111.823 12.5525 113.01 12.2539V10.9151H112.68L111.488 11.2116H110.789C108.737 11.2116 108.737 11.2116 108.737 9.2776C108.737 7.34354 108.737 7.34354 110.247 7.34354C111.525 7.34354 111.525 7.34354 111.832 8.57165L113.306 8.19987C113.306 7.60462 113.306 6.00684 110.535 6.00684H109.945C107.029 6.00684 107.029 7.86779 107.029 8.99355V9.5888C107.029 10.7041 107.029 12.5755 110.235 12.5755" fill="#231F20"/>
<path id="Vector_22" d="M120.58 12.5734L121.784 11.6669C121.341 11.0717 121.341 11.0717 121.341 10.0169V6.15302H119.72V10.6853L118.148 11.0821C116.477 11.0821 116.477 11.0821 116.477 9.35903V6.14258H114.855V9.60967C114.855 10.8378 114.855 12.5546 117.317 12.5546C118.607 12.5546 119.406 11.9468 119.84 11.6126L120.564 12.5797" fill="#231F20"/>
<path id="Vector_23" fill-rule="evenodd" clip-rule="evenodd" d="M126.371 3.92658C125.573 3.92658 125.573 3.92658 125.18 3.47961L124.469 4.03727C125.242 5.04189 125.635 5.11708 126.764 5.11708H127.035C128.152 5.11708 128.558 5.04252 129.311 4.03727L128.599 3.47961C128.218 3.92658 128.218 3.92658 127.408 3.92658H126.363M129.362 12.5943L130.566 11.6878C130.123 11.0926 130.123 11.0926 130.123 10.0378V6.17392H128.502V10.7062L126.93 11.103C125.296 11.103 125.259 11.103 125.259 9.37993V6.16348H123.637V9.63056C123.637 10.8587 123.637 12.5755 126.098 12.5755C127.389 12.5755 128.187 11.9677 128.622 11.6335L129.346 12.6006L129.362 12.5943Z" fill="#231F20"/>
<path id="Vector_24" d="M135.265 12.5525C135.708 12.5525 136.849 12.5525 138.037 12.2539V10.9151H137.706L136.514 11.2116H135.813C133.761 11.2116 133.761 11.2116 133.761 9.2776C133.761 7.34354 133.761 7.34354 135.271 7.34354C136.549 7.34354 136.549 7.34354 136.856 8.57165L138.33 8.19987C138.33 7.60462 138.33 6.00684 135.559 6.00684H134.969C132.053 6.00684 132.053 7.86779 132.053 8.99355V9.5888C132.053 10.7041 132.053 12.5755 135.259 12.5755" fill="#231F20"/>
<path id="Vector_25" d="M140.229 6.16135V12.4063H141.85V9.9835H143.84C143.84 10.6665 144.283 11.2617 145.129 12.4063H146.86V11.9343L144.992 9.42793C146.564 8.23742 146.564 8.23742 146.564 6.67097V6.15091H144.796V6.67097C144.796 8.56951 144.796 8.56951 142.953 8.56951H141.848V6.14673H140.227" fill="#231F20"/>
<path id="Vector_26" d="M154.293 12.5734L155.497 11.6669C155.054 11.0717 155.054 11.0717 155.054 10.0169V6.15302H153.433V10.6853L151.861 11.0821C150.19 11.0821 150.19 11.0821 150.19 9.35903V6.14258H148.568V9.60967C148.568 10.8378 148.568 12.5546 151.029 12.5546C152.32 12.5546 153.118 11.9468 153.553 11.6126L154.277 12.5797" fill="#231F20"/>
<path id="Vector_27" fill-rule="evenodd" clip-rule="evenodd" d="M158.637 8.70946C158.637 7.33307 158.637 7.33307 160.148 7.33307C161.658 7.33307 161.658 7.33307 161.658 8.70946H158.639M158.639 9.82478H160.151C161.735 9.81225 162.202 9.83731 162.736 9.71304L163.363 9.56433V8.95655C163.363 7.92686 163.363 5.99072 160.446 5.99072H159.857C156.941 5.99072 156.941 7.92477 156.941 8.97743V9.57268C156.941 10.688 156.965 12.5594 160.167 12.5594C160.647 12.5594 161.727 12.5594 162.897 12.2607V10.9219H162.566L161.387 11.2185H160.134C158.622 11.2183 158.622 11.2183 158.622 9.84212L158.639 9.82478Z" fill="#231F20"/>
</g>
</g>
<defs>
<clipPath id="clip0_299_3071">
<rect width="206" height="33" fill="white"/>
</clipPath>
</defs>
</svg>
