<svg width="40" height="40" viewBox="0 0 40 40" fill="none" xmlns="http://www.w3.org/2000/svg">
<path fill-rule="evenodd" clip-rule="evenodd" d="M12.6294 6.21517L17.3738 10.9596C17.5613 11.1471 17.6667 11.4015 17.6667 11.6667V16.6667C17.6667 17.219 17.219 17.6667 16.6667 17.6667H11.6667C11.4015 17.6667 11.1471 17.5613 10.9596 17.3738L6.21515 12.6294C5.83576 13.9338 5.75478 15.3136 5.98664 16.6649C6.30136 18.4993 7.17703 20.1909 8.49306 21.507C9.80909 22.823 11.5008 23.6987 13.3351 24.0134C15.1695 24.3281 17.0563 24.0664 18.7357 23.2643C19.1181 23.0817 19.5741 23.1599 19.8738 23.4596L29.8738 33.4596C30.3493 33.9351 30.9942 34.2022 31.6667 34.2022C32.3391 34.2022 32.9841 33.9351 33.4596 33.4596C33.9351 32.9841 34.2022 32.3391 34.2022 31.6667C34.2022 30.9942 33.9351 30.3493 33.4596 29.8738L23.4596 19.8738C23.1599 19.5741 23.0817 19.1181 23.2643 18.7357C24.0664 17.0563 24.3281 15.1695 24.0134 13.3351C23.6986 11.5008 22.823 9.8091 21.5069 8.49307C20.1909 7.17704 18.4992 6.30137 16.6649 5.98665C15.3136 5.7548 13.9338 5.83577 12.6294 6.21517ZM10.4024 4.93098C12.455 3.95064 14.7611 3.63079 17.0031 4.01545C19.2451 4.40011 21.3127 5.47038 22.9212 7.07886C24.5296 8.68734 25.5999 10.7549 25.9846 12.9969C26.3288 15.0032 26.1088 17.0607 25.3563 18.9421L34.8738 28.4596C35.7243 29.3101 36.2022 30.4638 36.2022 31.6667C36.2022 32.8696 35.7243 34.0232 34.8738 34.8738C34.0232 35.7244 32.8696 36.2022 31.6667 36.2022C30.4638 36.2022 29.3101 35.7244 28.4596 34.8738L18.9421 25.3563C17.0607 26.1089 15.0031 26.3288 12.9969 25.9846C10.7549 25.5999 8.68733 24.5296 7.07885 22.9212C5.47036 21.3127 4.4001 19.2451 4.01544 17.0031C3.63078 14.7611 3.95063 12.455 4.93096 10.4024C5.07087 10.1094 5.34427 9.90264 5.66423 9.84775C5.98419 9.79285 6.31089 9.89669 6.54044 10.1262L12.0809 15.6667H15.6667V12.0809L10.1262 6.54045C9.89668 6.3109 9.79284 5.9842 9.84774 5.66424C9.90263 5.34428 10.1094 5.07088 10.4024 4.93098Z" fill="#005BE2"/>
</svg>
