<svg width="40" height="40" viewBox="0 0 40 40" fill="none" xmlns="http://www.w3.org/2000/svg">
<path fill-rule="evenodd" clip-rule="evenodd" d="M8.60255 25.2692C9.4152 24.4565 10.5174 24 11.6667 24C12.8159 24 13.9181 24.4565 14.7308 25.2692C15.5435 26.0819 16 27.1841 16 28.3333C16 29.4826 15.5435 30.5848 14.7308 31.3975C13.9181 32.2101 12.8159 32.6667 11.6667 32.6667C10.5174 32.6667 9.4152 32.2101 8.60255 31.3975C7.78989 30.5848 7.33334 29.4826 7.33334 28.3333C7.33334 27.1841 7.78989 26.0819 8.60255 25.2692ZM11.6667 26C11.0478 26 10.4543 26.2458 10.0168 26.6834C9.57918 27.121 9.33334 27.7145 9.33334 28.3333C9.33334 28.9522 9.57918 29.5457 10.0168 29.9832C10.4543 30.4208 11.0478 30.6667 11.6667 30.6667C12.2855 30.6667 12.879 30.4208 13.3166 29.9832C13.7542 29.5457 14 28.9522 14 28.3333C14 27.7145 13.7542 27.121 13.3166 26.6834C12.879 26.2458 12.2855 26 11.6667 26Z" fill="#005BE2"/>
<path fill-rule="evenodd" clip-rule="evenodd" d="M25.2692 25.2692C26.0819 24.4565 27.1841 24 28.3333 24C29.4826 24 30.5848 24.4565 31.3975 25.2692C32.2101 26.0819 32.6667 27.1841 32.6667 28.3333C32.6667 29.4826 32.2101 30.5848 31.3975 31.3975C30.5848 32.2101 29.4826 32.6667 28.3333 32.6667C27.1841 32.6667 26.0819 32.2101 25.2692 31.3975C24.4565 30.5848 24 29.4826 24 28.3333C24 27.1841 24.4565 26.0819 25.2692 25.2692ZM28.3333 26C27.7145 26 27.121 26.2458 26.6834 26.6834C26.2458 27.121 26 27.7145 26 28.3333C26 28.9522 26.2458 29.5457 26.6834 29.9832C27.121 30.4208 27.7145 30.6667 28.3333 30.6667C28.9522 30.6667 29.5457 30.4208 29.9832 29.9832C30.4208 29.5457 30.6667 28.9522 30.6667 28.3333C30.6667 27.7145 30.4208 27.121 29.9832 26.6834C29.5457 26.2458 28.9522 26 28.3333 26Z" fill="#005BE2"/>
<path fill-rule="evenodd" clip-rule="evenodd" d="M2.33334 8.33334C2.33334 7.78106 2.78106 7.33334 3.33334 7.33334H21.6667C22.219 7.33334 22.6667 7.78106 22.6667 8.33334V9.00001H30C30.3513 9.00001 30.6768 9.18431 30.8575 9.48551L35.8575 17.8188C35.9508 17.9743 36 18.1521 36 18.3333V28.3333C36 28.8856 35.5523 29.3333 35 29.3333H31.6667C31.1144 29.3333 30.6667 28.8856 30.6667 28.3333C30.6667 27.7811 31.1144 27.3333 31.6667 27.3333H34V19.3333H22.6667V27.3333H25C25.5523 27.3333 26 27.7811 26 28.3333C26 28.8856 25.5523 29.3333 25 29.3333H15C14.4477 29.3333 14 28.8856 14 28.3333C14 27.7811 14.4477 27.3333 15 27.3333H20.6667V9.33334H3.33334C2.78106 9.33334 2.33334 8.88563 2.33334 8.33334ZM22.6667 11V17.3333H33.2338L29.4338 11H22.6667ZM5.00001 20.6667C5.55229 20.6667 6.00001 21.1144 6.00001 21.6667V27.3333H8.33334C8.88563 27.3333 9.33334 27.7811 9.33334 28.3333C9.33334 28.8856 8.88563 29.3333 8.33334 29.3333H5.00001C4.44773 29.3333 4.00001 28.8856 4.00001 28.3333V21.6667C4.00001 21.1144 4.44773 20.6667 5.00001 20.6667Z" fill="#005BE2"/>
<path fill-rule="evenodd" clip-rule="evenodd" d="M4 15C4 14.4477 4.44772 14 5 14H11.6667C12.219 14 12.6667 14.4477 12.6667 15C12.6667 15.5523 12.219 16 11.6667 16H5C4.44772 16 4 15.5523 4 15Z" fill="#005BE2"/>
</svg>
