<svg width="170" height="22" viewBox="0 0 170 22" fill="none" xmlns="http://www.w3.org/2000/svg">
<g id="logo-white 1" clip-path="url(#clip0_299_3117)">
<path id="Vector" d="M170 21.9083L156.707 -8.13603e-06H138.532H138.441L125.149 21.9083C125.149 22 125.149 22 125.239 22H138.894L147.574 7.51666C147.574 7.42499 147.665 7.42499 147.665 7.51666L156.346 22H170V21.9083ZM110.138 22H123.702C123.793 22 123.793 21.9083 123.793 21.9083L110.41 -8.13603e-06H92.234H92.1436L78.9415 21.9083C78.9415 22 78.9415 22 79.0319 22H105.979C106.521 22 106.883 21.3583 106.612 20.9L103.356 15.4917H96.5745C96.484 15.4917 96.484 15.4 96.484 15.4L101.186 7.51666C101.186 7.42499 101.277 7.42499 101.277 7.51666L110.138 22C110.048 22 110.048 22 110.138 22ZM82.6489 7.97499C82.5585 12.1917 78.9415 15.4917 74.6915 15.4917H59.5C59.5 15.4917 59.4096 15.4917 59.4096 15.5833V22C59.4096 22 59.4096 22.0917 59.3191 22.0917H46.2979C46.2979 22.0917 46.2074 22.0917 46.2074 22V8.98333C46.2074 8.98333 46.2074 8.89166 46.2979 8.89166H68.8138C69.4468 8.89166 69.9894 8.43333 70.0798 7.79166C70.1702 7.05833 69.6277 6.50833 68.9043 6.50833H46.2979C46.2979 6.50833 46.2074 6.50833 46.2074 6.41666V-8.13603e-06C46.2074 -8.13603e-06 46.2074 -0.0916748 46.2979 -0.0916748H74.8723C79.2128 -8.13603e-06 82.8298 3.57499 82.6489 7.97499ZM28.7553 -8.13603e-06L21.7926 9.16666H21.7021L14.7394 -8.13603e-06H0.0904255C0 -8.13603e-06 0 0.0916585 0 0.0916585L14.6489 18.425V18.5167L12.117 21.8167C12.117 21.9083 12.117 21.9083 12.2074 21.9083H27.5798L44.2181 0.0916585C44.2181 -8.13603e-06 44.2181 -8.13603e-06 44.1277 -8.13603e-06H28.7553Z" fill="#EC621F"/>
</g>
<defs>
<clipPath id="clip0_299_3117">
<rect width="170" height="22" fill="white"/>
</clipPath>
</defs>
</svg>
